<svg xmlns="http://www.w3.org/2000/svg" width="1024" height="1024" viewBox="0 0 1024 1024">
<g>
<path d="M 850.00 177.00 L 849.50 850.50 L 175.00 851.00 L 175.00 177.00 ZM 541.06 755.25 C568.30,755.94 585.32,755.97 598.47,755.34 C612.23,754.68 612.26,754.67 615.38,751.54 C617.80,749.11 618.55,747.42 618.75,743.96 C618.92,740.75 619.62,739.01 621.25,737.68 C622.79,736.43 623.11,735.69 622.25,735.34 C619.91,734.39 620.99,733.00 624.07,733.00 C626.69,733.00 627.04,733.29 626.49,735.03 C625.98,736.65 626.46,737.27 628.92,738.12 C630.62,738.71 632.00,739.85 632.00,740.65 C632.00,741.45 633.46,742.72 635.25,743.48 C637.04,744.24 639.04,745.75 639.70,746.84 C640.36,747.93 642.33,749.13 644.07,749.52 C645.91,749.92 647.44,750.98 647.72,752.04 C647.98,753.04 648.94,754.18 649.85,754.58 C655.33,756.96 713.93,755.71 714.77,753.19 C714.97,752.58 716.68,751.12 718.57,749.96 C720.46,748.79 722.00,747.35 722.00,746.75 C722.00,746.15 722.73,744.85 723.63,743.86 C725.40,741.90 725.78,734.23 724.64,723.50 C723.47,712.61 723.24,705.51 724.00,704.50 C724.95,703.23 724.73,690.40 723.74,689.41 C723.33,689.00 723.00,688.05 723.00,687.29 C723.00,684.06 718.51,679.91 713.41,678.43 C710.57,677.61 707.45,676.05 706.47,674.96 C705.49,673.88 703.66,673.00 702.40,673.00 C698.09,673.00 698.96,671.13 703.60,670.43 C706.59,669.98 708.96,668.91 710.26,667.42 C711.37,666.14 713.59,664.81 715.20,664.46 C716.98,664.07 718.47,662.90 719.00,661.49 C719.49,660.21 720.53,658.79 721.30,658.33 C723.13,657.26 724.44,650.39 722.99,649.49 C722.40,649.13 722.18,648.01 722.50,647.00 C722.82,645.99 722.61,644.88 722.04,644.53 C721.47,644.17 721.00,642.94 721.00,641.78 C721.00,639.42 715.63,634.16 712.53,633.48 C708.30,632.55 689.94,630.92 689.16,631.40 C688.70,631.68 681.17,631.98 672.42,632.06 C652.24,632.25 648.22,632.87 644.79,636.30 C643.30,637.79 641.19,639.00 640.08,639.00 C638.97,639.00 637.57,639.94 636.96,641.08 C636.35,642.22 634.53,643.62 632.92,644.18 C631.15,644.80 630.00,645.90 630.00,647.00 C630.00,649.43 624.56,651.37 621.84,649.91 C620.24,649.06 620.10,648.58 621.09,647.39 C622.02,646.27 622.03,645.63 621.16,644.76 C620.52,644.12 620.00,642.60 620.00,641.37 C620.00,640.05 619.22,638.89 618.09,638.53 C617.04,638.19 615.49,636.86 614.64,635.57 C613.47,633.79 611.22,632.80 605.30,631.46 C601.01,630.49 596.38,629.74 595.00,629.80 C593.62,629.87 580.80,630.09 566.50,630.30 C549.38,630.56 538.62,631.15 535.00,632.03 C528.98,633.50 526.72,634.74 527.57,636.12 C528.46,637.55 522.80,639.21 519.06,638.61 C517.12,638.30 514.73,636.99 513.56,635.58 C509.84,631.09 493.88,629.86 485.79,633.43 C484.85,633.84 483.80,635.04 483.47,636.09 C483.14,637.14 482.25,638.00 481.50,638.00 C479.77,638.00 476.82,640.90 477.48,641.97 C477.75,642.41 477.31,643.33 476.50,644.00 C475.57,644.78 475.24,646.11 475.62,647.61 C476.01,649.16 475.78,650.00 474.99,650.00 C474.27,650.00 473.98,650.80 474.27,651.93 C475.03,654.85 471.13,657.84 465.06,658.99 C457.20,660.48 453.32,660.25 451.29,658.16 C450.31,657.15 448.68,656.03 447.68,655.67 C446.39,655.20 446.05,654.42 446.51,652.96 C446.87,651.83 446.72,650.36 446.18,649.70 C445.63,649.04 444.86,646.30 444.46,643.62 C443.93,640.07 443.22,638.61 441.87,638.26 C440.84,637.99 440.00,637.47 440.00,637.10 C440.00,636.73 438.54,635.55 436.75,634.47 C434.03,632.82 431.66,632.50 422.16,632.50 C411.81,632.50 410.67,632.69 409.11,634.62 C408.16,635.79 406.37,637.07 405.12,637.46 C402.39,638.33 397.69,637.31 398.49,636.02 C399.36,634.62 396.11,633.32 389.77,632.56 C386.61,632.17 383.78,631.45 383.47,630.94 C382.69,629.69 318.99,630.66 314.01,632.00 C310.20,633.02 307.00,635.29 307.00,636.96 C307.00,637.41 305.88,638.07 304.50,638.41 C302.96,638.80 302.00,639.75 302.00,640.90 C302.00,641.92 301.32,643.32 300.49,644.01 C299.52,644.81 299.31,645.67 299.90,646.38 C300.41,647.00 300.83,648.62 300.84,650.00 C300.88,654.08 301.79,658.25 302.79,658.90 C303.31,659.23 304.02,660.40 304.38,661.50 C305.60,665.26 312.57,669.15 319.14,669.75 C323.48,670.14 325.31,670.74 325.66,671.90 C325.93,672.78 326.59,674.32 327.13,675.33 C327.81,676.59 327.74,677.61 326.90,678.62 C325.99,679.71 325.97,680.37 326.82,681.22 C327.57,681.97 327.62,682.75 326.97,683.53 C326.34,684.30 326.34,686.54 326.99,689.96 C327.54,692.85 327.73,695.63 327.41,696.15 C327.09,696.67 327.24,697.63 327.75,698.29 C328.25,698.96 328.60,703.02 328.53,707.31 C328.45,711.61 328.77,715.36 329.24,715.65 C329.71,715.94 329.57,716.81 328.94,717.58 C328.30,718.35 328.04,719.67 328.37,720.53 C328.70,721.38 328.41,722.98 327.73,724.07 C326.80,725.58 326.78,726.24 327.67,726.79 C328.50,727.31 328.58,728.89 327.93,732.37 C327.43,735.04 327.34,737.73 327.73,738.36 C328.13,738.99 328.32,740.29 328.16,741.26 C328.00,742.22 328.54,743.27 329.35,743.58 C330.16,743.89 331.09,745.24 331.43,746.57 C331.76,747.91 332.41,749.00 332.87,749.00 C333.33,749.00 335.12,750.35 336.84,752.00 C339.92,754.94 340.18,755.00 350.46,755.00 C360.66,755.00 361.01,754.92 363.89,752.11 C365.52,750.52 367.36,749.05 367.98,748.84 C368.60,748.63 369.22,747.68 369.36,746.72 C369.51,745.76 370.16,744.44 370.81,743.79 C371.46,743.14 372.00,741.82 372.00,740.86 C372.00,739.90 372.44,738.84 372.98,738.51 C373.97,737.90 373.84,726.22 372.82,724.45 C372.01,723.03 372.38,704.28 373.24,703.43 C373.65,703.02 373.47,702.06 372.83,701.30 C371.97,700.26 371.97,699.63 372.84,698.76 C373.48,698.12 374.00,696.59 374.00,695.36 C374.00,694.13 374.45,692.84 375.00,692.50 C375.61,692.13 375.66,691.20 375.14,690.19 C374.67,689.26 374.21,686.31 374.13,683.63 C374.04,680.96 373.72,678.35 373.40,677.83 C373.08,677.32 373.56,675.33 374.47,673.42 L 376.12 669.94 L 387.31 670.22 C397.50,670.47 398.47,670.66 398.19,672.32 C398.02,673.33 398.41,674.79 399.06,675.57 C399.97,676.66 399.97,677.33 399.07,678.41 C398.21,679.45 398.20,680.00 399.03,680.52 C399.65,680.90 399.90,682.27 399.58,683.55 C399.26,684.83 399.37,686.11 399.84,686.40 C400.31,686.69 400.57,689.30 400.42,692.20 C400.27,695.10 400.65,698.08 401.26,698.82 C402.09,699.81 402.03,700.36 401.04,700.97 C400.28,701.44 399.95,702.69 400.26,703.90 C400.56,705.05 400.44,706.23 399.99,706.50 C399.54,706.78 399.39,710.27 399.65,714.26 C399.92,718.24 400.23,724.98 400.34,729.23 C400.46,733.48 401.07,737.47 401.70,738.10 C402.33,738.73 402.60,739.87 402.31,740.63 C402.02,741.40 402.33,742.69 403.00,743.50 C403.67,744.31 403.97,745.65 403.65,746.47 C403.30,747.39 403.93,748.42 405.29,749.14 C406.50,749.78 408.52,751.39 409.77,752.72 C412.00,755.11 412.27,755.14 426.96,754.82 C441.67,754.50 441.91,754.46 444.74,751.75 C446.32,750.24 448.20,749.00 448.91,749.00 C449.71,749.00 449.97,748.36 449.58,747.36 C449.22,746.42 449.71,744.87 450.71,743.77 C451.68,742.70 452.48,741.10 452.49,740.23 C452.49,739.27 453.81,738.29 455.75,737.79 C458.08,737.18 459.00,736.36 459.00,734.90 C459.00,733.27 459.55,732.93 461.75,733.18 C463.65,733.40 464.42,734.01 464.23,735.15 C464.06,736.21 465.06,737.17 467.09,737.88 C469.13,738.59 470.04,739.46 469.69,740.38 C469.14,741.80 470.71,744.37 474.75,748.69 C475.99,750.01 477.00,751.50 477.00,752.01 C477.00,754.24 481.78,755.00 495.80,755.00 L 510.72 755.00 L 514.50 752.00 C516.58,750.35 519.08,749.00 520.07,749.00 C522.89,749.00 527.18,750.90 526.57,751.88 C525.26,754.00 529.37,754.95 541.06,755.25 ZM 307.25 608.42 C312.43,611.92 312.63,611.96 323.00,611.97 C332.14,611.98 334.15,611.66 338.50,609.52 C341.25,608.17 344.30,607.05 345.27,607.03 C346.25,607.01 347.53,605.92 348.13,604.61 C348.73,603.30 350.29,601.73 351.59,601.14 C353.13,600.44 353.75,599.52 353.37,598.52 C352.95,597.43 353.70,596.65 355.89,595.89 C357.80,595.22 359.00,594.12 359.00,593.02 C359.00,591.99 360.25,590.73 361.97,590.01 C363.60,589.34 365.17,588.03 365.46,587.11 C365.76,586.19 367.35,584.93 369.00,584.31 C370.65,583.68 372.00,582.51 372.00,581.70 C372.00,580.89 373.12,579.49 374.50,578.59 C375.88,577.69 377.00,576.31 377.00,575.51 C377.00,574.72 377.93,573.57 379.08,572.96 C380.26,572.33 380.92,571.24 380.61,570.43 C380.28,569.55 381.18,568.44 383.00,567.50 C384.85,566.54 385.73,565.45 385.38,564.54 C385.01,563.58 386.01,562.61 388.41,561.60 C390.39,560.78 392.00,559.63 392.00,559.04 C392.00,558.46 393.80,557.26 396.00,556.38 C398.51,555.38 400.00,554.14 400.00,553.05 C400.00,552.10 401.12,550.81 402.50,550.18 C403.90,549.54 405.00,548.20 405.00,547.13 C405.00,545.92 405.92,544.99 407.50,544.59 C409.13,544.18 410.00,543.26 410.00,541.96 C410.00,540.79 411.04,539.48 412.50,538.82 C414.13,538.08 415.00,536.86 415.00,535.34 C415.00,533.52 415.55,533.00 417.46,533.00 C418.94,533.00 420.38,532.16 421.05,530.92 C421.66,529.77 423.70,528.19 425.58,527.40 C427.46,526.62 429.00,525.28 429.00,524.43 C429.00,523.59 430.35,522.43 432.00,521.85 C433.93,521.18 435.00,520.12 435.00,518.88 C435.00,517.73 436.04,516.56 437.57,515.97 C439.50,515.24 439.98,514.52 439.52,513.06 C439.09,511.72 439.53,510.78 440.95,510.03 C442.08,509.42 443.00,508.09 443.00,507.07 C443.00,505.92 443.96,504.98 445.54,504.58 C446.93,504.23 448.47,502.89 448.96,501.61 C449.54,500.09 450.96,499.06 453.08,498.63 C454.86,498.28 456.97,497.06 457.76,495.93 C458.55,494.80 460.28,493.46 461.60,492.96 C462.92,492.46 464.00,491.25 464.00,490.27 C464.00,489.28 464.90,487.92 466.00,487.23 C467.10,486.55 468.00,485.16 468.00,484.15 C468.00,483.14 469.12,481.81 470.48,481.19 C472.06,480.47 472.75,479.52 472.39,478.57 C472.00,477.56 472.67,476.87 474.48,476.42 C475.96,476.04 477.54,474.71 478.03,473.43 C478.64,471.81 480.03,470.90 482.58,470.42 C484.92,469.98 486.43,469.06 486.73,467.91 C486.99,466.91 488.27,465.40 489.57,464.54 C490.90,463.67 491.70,462.39 491.40,461.60 C491.04,460.67 492.02,459.82 494.33,459.06 C496.31,458.40 498.01,457.08 498.30,455.96 C498.70,454.44 499.69,454.00 502.66,453.99 C508.66,453.98 519.20,452.04 522.50,450.34 C524.73,449.19 529.74,448.69 542.00,448.37 C560.21,447.91 569.18,446.63 568.41,444.62 C568.10,443.83 570.64,442.09 575.21,439.96 L 582.50 436.56 L 603.00 435.93 C614.28,435.59 623.56,435.24 623.63,435.15 C623.71,435.07 624.00,434.09 624.30,432.98 C624.59,431.87 626.18,430.49 627.83,429.91 C629.49,429.33 631.08,428.24 631.36,427.49 C631.65,426.74 634.68,425.57 638.08,424.90 C642.64,424.01 644.40,423.20 644.75,421.83 C645.39,419.39 647.97,418.84 657.00,419.20 C663.57,419.46 664.52,419.74 664.84,421.50 C665.04,422.60 665.86,424.24 666.67,425.15 C667.69,426.30 667.80,427.01 667.02,427.48 C666.42,427.86 666.21,429.09 666.57,430.21 C666.96,431.46 666.69,432.58 665.86,433.09 C664.78,433.77 664.74,434.33 665.71,435.88 C666.68,437.45 666.62,438.07 665.43,439.06 C664.62,439.73 664.19,441.02 664.48,441.92 C664.84,443.07 664.09,443.90 662.00,444.69 C660.33,445.33 659.00,446.56 659.00,447.48 C659.00,448.40 658.30,449.85 657.44,450.71 C656.37,451.77 656.20,452.60 656.89,453.29 C657.58,453.98 657.57,454.93 656.88,456.23 C656.31,457.29 656.07,458.74 656.34,459.46 C656.62,460.17 656.39,461.21 655.83,461.77 C654.82,462.78 657.17,467.58 659.48,469.23 C661.50,470.69 671.85,470.08 673.21,468.43 C673.92,467.57 675.29,466.12 676.25,465.21 C677.21,464.30 678.00,462.87 678.00,462.03 C678.00,461.19 679.76,458.58 681.90,456.23 C684.49,453.40 685.64,451.32 685.31,450.06 C684.94,448.65 685.41,448.08 687.14,447.83 C688.54,447.63 689.63,446.69 689.84,445.50 C690.04,444.40 690.93,442.68 691.82,441.68 C693.07,440.27 693.39,437.97 693.24,431.43 C693.05,423.04 691.34,417.45 688.43,415.74 C686.89,414.83 684.03,409.35 683.93,407.10 C683.89,406.22 683.10,404.36 682.18,402.96 C681.25,401.57 679.65,399.10 678.62,397.46 C676.01,393.36 668.36,388.60 664.36,388.60 C662.57,388.60 660.25,389.36 659.22,390.30 C656.66,392.62 654.53,392.43 652.75,389.75 C651.32,387.60 650.65,387.50 637.61,387.50 L 623.97 387.50 L 621.58 390.50 L 619.19 393.50 L 589.85 393.80 C573.71,393.96 559.49,393.84 558.25,393.53 C555.43,392.82 555.35,391.34 558.09,390.47 C559.57,390.00 560.03,389.23 559.66,387.83 C559.27,386.31 559.84,385.60 562.07,384.82 C563.68,384.26 565.00,383.16 565.00,382.37 C565.00,380.03 571.85,373.88 575.62,372.84 C577.54,372.31 579.39,371.12 579.74,370.19 C580.09,369.26 581.22,367.89 582.25,367.15 C583.29,366.40 583.91,365.21 583.63,364.49 C583.36,363.77 583.97,362.43 585.00,361.50 C586.03,360.57 586.65,359.25 586.39,358.57 C586.12,357.88 586.60,356.74 587.45,356.04 C588.30,355.33 589.00,354.14 589.00,353.39 C589.00,352.63 589.90,351.45 591.00,350.77 C592.10,350.08 593.00,348.73 593.00,347.77 C593.00,346.72 594.39,345.44 596.50,344.56 C598.42,343.76 600.00,342.48 600.00,341.71 C600.00,340.95 601.12,339.81 602.50,339.18 C603.97,338.51 605.00,337.21 605.00,336.02 C605.00,334.91 605.41,334.00 605.90,334.00 C606.73,334.00 609.65,329.90 612.80,324.31 C613.52,323.04 614.68,322.00 615.37,322.00 C616.06,322.00 617.90,320.67 619.45,319.05 C621.00,317.43 623.23,315.97 624.39,315.80 C625.68,315.62 626.62,314.65 626.81,313.30 C626.99,312.09 628.00,310.82 629.06,310.48 C630.13,310.14 631.00,309.17 631.00,308.33 C631.00,306.13 635.82,300.70 638.94,299.38 C643.24,297.57 644.67,291.65 643.09,282.18 C642.38,277.96 641.44,274.36 641.00,274.20 C640.55,274.03 639.16,273.01 637.91,271.92 C634.83,269.25 631.73,268.50 623.74,268.50 C617.42,268.50 616.78,268.71 613.99,271.70 C612.34,273.45 611.00,275.49 611.00,276.22 C611.00,276.96 610.10,278.33 609.00,279.27 C607.90,280.21 607.00,281.63 607.00,282.42 C607.00,283.22 606.07,284.16 604.94,284.52 C603.81,284.88 602.39,286.24 601.80,287.54 C601.21,288.84 599.44,290.35 597.86,290.90 C596.29,291.45 595.00,292.58 595.00,293.41 C595.00,294.25 594.08,295.42 592.95,296.03 C591.83,296.63 590.49,298.22 589.98,299.56 C589.47,300.90 588.39,302.00 587.59,302.00 C586.79,302.00 585.85,302.90 585.50,304.00 C584.64,306.69 580.36,306.69 579.50,304.00 C579.15,302.90 578.46,302.00 577.97,302.00 C577.47,302.00 577.24,299.64 577.44,296.75 C577.65,293.86 577.36,290.94 576.79,290.25 C576.07,289.38 576.10,288.59 576.87,287.66 C577.48,286.92 577.67,286.00 577.29,285.62 C576.90,285.24 576.53,283.93 576.45,282.71 C576.05,276.25 572.06,272.02 564.00,269.48 C559.84,268.17 555.40,268.98 548.08,272.37 C541.93,275.22 539.92,278.33 539.77,285.28 C539.71,287.93 539.27,290.34 538.79,290.63 C538.31,290.93 538.21,292.09 538.57,293.21 C538.96,294.46 538.69,295.58 537.86,296.09 C536.81,296.75 536.76,297.36 537.63,298.77 C538.50,300.17 538.45,301.03 537.42,302.45 C536.67,303.46 536.32,304.71 536.64,305.23 C536.96,305.74 536.29,306.81 535.15,307.61 C534.01,308.40 533.31,309.63 533.58,310.34 C533.85,311.05 533.17,312.45 532.06,313.45 C530.95,314.45 530.33,315.73 530.68,316.29 C531.02,316.85 530.50,317.89 529.52,318.61 C528.41,319.42 527.94,320.67 528.28,321.95 C528.57,323.08 528.37,324.27 527.83,324.61 C527.28,324.94 527.10,326.27 527.42,327.55 C527.74,328.83 527.55,330.16 527.00,330.50 C526.33,330.92 526.33,331.74 527.00,333.00 C527.69,334.29 527.67,335.09 526.92,335.55 C526.33,335.92 526.10,337.27 526.42,338.55 C526.74,339.83 526.55,341.16 526.00,341.50 C525.45,341.84 525.26,343.18 525.58,344.46 C525.96,345.98 525.65,347.11 524.70,347.65 C523.89,348.12 523.06,349.38 522.85,350.46 C522.63,351.67 521.23,352.79 519.24,353.36 C517.23,353.94 516.00,354.93 516.00,355.98 C516.00,356.92 514.88,358.19 513.50,358.82 C512.07,359.47 511.00,360.80 511.00,361.91 C511.00,362.99 510.10,364.15 509.00,364.50 C507.51,364.97 507.14,365.72 507.57,367.40 C508.04,369.31 507.60,369.83 504.82,370.65 C502.52,371.32 501.59,372.14 501.80,373.32 C501.98,374.39 501.11,375.39 499.45,376.02 C498.00,376.57 496.57,377.92 496.29,379.00 C495.96,380.28 494.37,381.36 491.85,382.04 C489.05,382.79 488.01,383.57 488.22,384.77 C488.43,386.01 487.40,386.68 484.25,387.36 C481.16,388.03 480.00,388.78 480.00,390.09 C480.00,391.08 479.04,392.56 477.87,393.38 C476.58,394.28 475.97,395.49 476.33,396.42 C476.69,397.35 476.18,398.37 475.05,398.97 C473.82,399.63 473.36,400.66 473.71,401.99 C474.04,403.28 473.74,404.01 472.87,404.02 C470.69,404.04 468.89,405.54 468.59,407.58 C468.40,408.85 467.07,409.76 464.53,410.36 C462.19,410.92 460.56,411.96 460.26,413.10 C459.79,414.91 459.20,415.21 453.69,416.44 C451.43,416.95 451.01,417.46 451.53,419.10 C452.02,420.65 451.66,421.28 450.02,421.71 C448.36,422.14 447.98,422.80 448.42,424.53 C448.87,426.34 448.48,426.91 446.44,427.43 C444.52,427.91 443.96,428.62 444.19,430.28 C444.44,432.09 443.84,432.66 440.89,433.39 C436.96,434.36 432.00,433.56 432.00,431.96 C432.00,431.40 433.19,430.50 434.65,429.94 C437.19,428.98 437.22,428.88 435.40,427.49 C433.75,426.23 433.70,425.91 435.00,425.05 C436.23,424.24 436.28,423.70 435.26,422.06 C434.20,420.35 434.31,419.90 436.01,418.99 C437.10,418.41 438.00,417.23 438.00,416.38 C438.00,415.52 439.01,413.93 440.25,412.85 C441.89,411.41 442.14,410.72 441.19,410.33 C440.16,409.91 440.25,409.39 441.56,407.93 C442.49,406.91 443.01,405.48 442.73,404.75 C442.45,404.01 442.85,402.56 443.61,401.52 C444.66,400.08 444.71,399.44 443.81,398.89 C442.91,398.33 442.94,397.78 443.93,396.59 C444.64,395.73 444.94,394.28 444.59,393.37 C444.19,392.33 444.70,391.20 445.98,390.30 C447.09,389.52 448.00,388.12 448.00,387.18 C448.00,386.24 449.01,385.01 450.25,384.45 C451.49,383.89 452.37,382.82 452.21,382.09 C452.05,381.35 452.62,379.97 453.48,379.02 C454.34,378.07 454.78,376.59 454.46,375.75 C454.13,374.90 454.34,373.91 454.93,373.54 C455.52,373.18 456.00,372.08 456.00,371.10 C456.00,370.11 456.90,368.50 458.00,367.50 C459.10,366.50 460.00,365.10 460.00,364.38 C460.00,363.66 460.90,362.59 462.00,362.00 C463.15,361.38 464.00,359.91 464.00,358.52 C464.00,357.20 464.41,355.86 464.91,355.55 C466.06,354.84 464.01,348.90 462.10,347.40 C461.32,346.80 461.03,345.76 461.45,345.09 C461.86,344.42 461.52,343.11 460.70,342.19 C459.88,341.26 459.05,339.66 458.85,338.62 C458.60,337.30 456.43,336.05 451.50,334.38 C442.77,331.43 442.47,331.44 435.62,334.57 C431.82,336.31 430.00,337.73 430.00,338.95 C430.00,339.94 429.37,341.28 428.60,341.91 C427.84,342.55 427.44,343.95 427.72,345.02 C428.04,346.25 427.62,347.21 426.61,347.59 C425.73,347.94 425.00,349.24 425.00,350.50 C425.00,351.76 424.36,353.03 423.58,353.33 C422.80,353.63 422.01,354.89 421.83,356.13 C421.60,357.72 420.53,358.63 418.17,359.24 C415.49,359.93 415.06,360.37 415.98,361.48 C416.88,362.56 416.68,363.10 415.06,363.97 C413.93,364.57 413.00,365.86 413.00,366.84 C413.00,367.81 412.46,369.14 411.80,369.80 C409.32,372.28 402.00,370.49 402.00,367.41 C402.00,366.58 400.65,365.43 399.00,364.85 C397.07,364.18 396.00,363.12 396.00,361.88 C396.00,360.82 394.92,359.47 393.58,358.86 C392.26,358.25 390.96,356.96 390.71,355.99 C390.40,354.82 388.84,353.98 386.12,353.52 C381.40,352.72 374.00,353.71 374.00,355.14 C374.00,355.66 372.87,357.14 371.49,358.42 C369.52,360.25 368.90,361.97 368.55,366.58 C368.30,369.83 368.56,372.97 369.14,373.66 C369.71,374.35 369.90,375.35 369.57,375.88 C368.89,376.99 372.76,384.10 374.70,385.30 C375.42,385.74 376.00,386.74 376.00,387.51 C376.00,388.29 376.90,389.41 378.00,390.00 C379.10,390.59 380.00,391.90 380.00,392.91 C380.00,393.93 380.69,395.32 381.52,396.02 C382.36,396.71 382.80,398.07 382.49,399.03 C382.08,400.31 382.72,401.06 384.84,401.79 C387.08,402.57 387.86,403.57 388.25,406.15 C388.53,407.99 388.53,409.89 388.25,410.36 C387.32,411.94 387.15,418.98 388.04,419.52 C388.52,419.82 388.66,420.73 388.34,421.54 C388.03,422.36 388.19,423.58 388.70,424.26 C389.48,425.30 389.65,431.35 388.94,433.00 C388.82,433.27 388.67,436.91 388.60,441.09 C388.50,446.75 388.04,449.10 386.78,450.37 C385.85,451.30 385.33,452.69 385.62,453.45 C385.92,454.24 385.23,455.34 384.03,455.98 C382.58,456.76 382.09,457.72 382.49,458.98 C382.91,460.28 382.47,461.03 381.04,461.49 C379.61,461.94 379.00,462.99 379.00,465.01 C379.00,466.59 378.65,468.10 378.22,468.37 C377.79,468.63 377.53,471.13 377.65,473.91 C377.76,476.69 377.44,479.23 376.93,479.55 C376.35,479.90 376.37,480.82 376.96,481.93 C377.49,482.92 377.61,484.06 377.22,484.45 C376.83,484.84 376.44,487.26 376.36,489.83 C376.28,492.40 376.16,494.79 376.11,495.14 C376.05,495.49 374.89,496.06 373.54,496.40 C371.93,496.81 371.26,497.52 371.62,498.46 C371.99,499.42 370.99,500.40 368.59,501.40 C366.61,502.22 365.00,503.38 365.00,503.97 C365.00,504.55 363.43,505.78 361.51,506.70 C359.59,507.61 357.76,509.18 357.44,510.18 C357.12,511.18 356.00,512.47 354.93,513.04 C353.87,513.61 353.00,514.94 353.00,516.00 C353.00,517.06 352.10,518.41 351.00,519.00 C349.90,519.59 349.00,520.91 349.00,521.93 C349.00,523.07 348.04,524.02 346.50,524.41 C344.90,524.81 344.00,525.74 344.00,526.99 C344.00,528.36 343.02,529.19 340.75,529.77 C338.94,530.23 337.07,531.55 336.54,532.73 C336.01,533.91 334.55,535.34 333.29,535.91 C332.03,536.49 331.00,537.63 331.00,538.45 C331.00,539.28 329.65,540.65 328.00,541.50 C326.35,542.35 325.00,543.70 325.00,544.49 C325.00,545.28 324.10,546.41 323.00,547.00 C321.90,547.59 321.00,548.88 321.00,549.87 C321.00,550.87 319.91,552.17 318.59,552.78 C317.26,553.38 315.88,554.81 315.52,555.94 C315.16,557.07 314.23,558.00 313.45,558.00 C311.46,558.00 303.00,566.32 303.00,568.27 C303.00,569.16 302.52,570.18 301.93,570.54 C301.34,570.91 301.13,571.89 301.45,572.73 C301.77,573.57 301.53,574.87 300.91,575.61 C300.28,576.36 300.05,577.69 300.38,578.56 C300.72,579.43 300.54,580.98 299.99,582.01 C299.32,583.28 299.33,584.09 300.05,584.53 C300.77,584.98 300.75,585.60 299.97,586.54 C299.34,587.29 299.12,588.79 299.46,589.87 C299.80,590.95 299.64,592.10 299.11,592.43 C297.76,593.26 298.99,600.32 300.65,601.30 C301.39,601.74 302.00,602.72 302.00,603.48 C302.00,604.25 304.36,606.47 307.25,608.42 ZM 561.00 612.02 C562.92,612.44 575.80,612.72 589.62,612.64 L 614.73 612.50 L 617.77 609.25 C619.44,607.46 621.20,606.00 621.68,606.00 C623.20,606.00 624.67,600.62 624.22,596.73 C623.97,594.60 623.23,593.00 622.51,593.00 C621.80,593.00 620.52,591.92 619.65,590.59 C618.78,589.26 616.45,587.64 614.47,586.99 C611.88,586.14 611.03,585.37 611.45,584.27 C611.78,583.42 611.26,582.18 610.27,581.45 C609.30,580.74 608.88,579.79 609.33,579.33 C609.79,578.87 616.76,578.36 624.83,578.19 C638.75,577.89 639.61,577.75 641.72,575.51 C642.94,574.22 644.75,572.90 645.74,572.58 C648.03,571.86 650.85,566.26 650.57,563.00 C650.29,559.78 645.34,551.93 643.79,552.25 C643.13,552.39 642.57,551.60 642.55,550.50 C642.52,549.40 641.49,548.06 640.25,547.51 C638.90,546.92 638.00,545.65 638.00,544.32 C638.00,543.11 637.53,541.83 636.95,541.47 C636.23,541.03 636.27,540.38 637.06,539.42 C637.70,538.65 637.95,537.30 637.61,536.42 C637.27,535.54 637.31,534.30 637.71,533.67 C638.94,531.67 638.67,524.97 637.31,523.84 C636.59,523.24 636.00,522.20 636.00,521.53 C636.00,520.86 635.10,519.50 634.00,518.50 C632.90,517.50 632.00,516.16 632.00,515.51 C632.00,514.85 630.88,513.81 629.50,513.18 C628.07,512.53 627.00,511.20 627.00,510.09 C627.00,509.01 626.11,507.85 625.03,507.51 C623.25,506.94 623.11,506.24 623.63,500.19 C624.72,487.35 624.66,485.55 623.05,484.33 C622.20,483.69 621.44,482.67 621.38,482.08 C621.31,481.49 621.19,480.58 621.12,480.07 C621.06,479.55 620.10,478.85 619.00,478.50 C617.90,478.15 617.00,477.11 616.99,476.18 C616.99,475.26 615.64,473.73 613.99,472.80 C612.35,471.86 611.00,470.43 611.00,469.63 C611.00,468.80 609.65,467.86 607.92,467.48 C605.30,466.91 604.92,466.45 605.42,464.48 C605.91,462.52 605.53,462.06 603.00,461.50 C600.98,461.06 600.00,460.23 600.00,458.99 C600.00,456.29 596.68,455.52 586.07,455.78 L 576.64 456.01 L 573.32 459.63 C571.49,461.62 570.00,464.06 570.00,465.05 C570.00,466.23 568.97,467.07 566.96,467.51 C564.53,468.04 564.04,468.56 564.54,470.11 C565.02,471.63 564.48,472.29 562.06,473.13 C560.18,473.79 559.07,474.80 559.23,475.72 C559.50,477.24 558.13,478.35 554.65,479.44 C553.43,479.82 553.01,480.58 553.42,481.65 C553.81,482.68 553.28,483.82 551.97,484.73 C550.32,485.89 550.14,486.47 551.10,487.62 C552.05,488.77 551.91,489.36 550.40,490.51 C548.86,491.68 548.76,492.13 549.86,492.86 C550.74,493.44 550.96,494.54 550.50,496.00 C550.04,497.44 550.25,498.54 551.08,499.05 C552.13,499.70 552.13,500.14 551.06,501.42 C550.04,502.65 550.02,503.32 550.95,504.44 C551.92,505.60 551.74,506.14 550.08,507.18 C548.93,507.90 548.00,509.23 548.00,510.14 C548.00,511.10 546.69,512.26 544.92,512.88 C542.51,513.72 541.98,514.37 542.47,515.89 C542.91,517.30 542.51,518.02 541.04,518.49 C539.81,518.88 538.93,520.09 538.83,521.57 C538.73,522.91 538.57,525.28 538.47,526.85 C538.38,528.42 538.00,530.19 537.63,530.78 C537.27,531.38 537.36,532.11 537.85,532.41 C538.98,533.11 539.00,540.88 537.86,541.58 C537.39,541.88 537.00,543.22 537.00,544.56 C537.00,545.90 536.44,547.01 535.75,547.02 C535.06,547.02 533.85,547.44 533.06,547.94 C531.87,548.69 531.85,549.12 532.94,550.42 C533.66,551.29 534.08,552.03 533.87,552.08 C533.67,552.12 532.68,552.31 531.67,552.50 C528.08,553.18 527.00,553.97 527.00,555.91 C527.00,556.99 526.59,558.13 526.09,558.44 C525.10,559.06 525.31,565.57 526.41,568.10 C526.79,568.98 526.96,570.29 526.80,571.01 C526.62,571.82 528.15,572.74 530.79,573.41 C533.15,574.01 535.49,575.17 536.00,576.00 C536.71,577.16 539.84,577.62 549.71,578.03 C563.12,578.58 565.87,579.24 564.03,581.46 C563.45,582.17 563.24,583.47 563.59,584.36 C563.95,585.31 563.64,586.14 562.85,586.36 C557.28,587.89 555.48,588.71 555.38,589.77 C555.31,590.45 555.19,591.40 555.12,591.88 C555.06,592.37 554.10,593.00 553.00,593.29 C551.65,593.64 551.19,594.34 551.61,595.42 C551.95,596.30 551.67,597.69 550.99,598.51 C550.01,599.70 550.03,600.33 551.11,601.64 C551.86,602.54 552.48,604.00 552.48,604.89 C552.49,605.79 553.49,606.64 554.75,606.82 C556.89,607.12 559.95,610.85 558.29,611.13 C557.85,611.20 559.08,611.61 561.00,612.02 ZM 527.50 722.00 C527.16,722.55 525.98,723.00 524.87,723.00 C523.35,723.00 523.01,722.54 523.47,721.08 C523.81,720.03 523.61,718.88 523.04,718.52 C522.46,718.17 522.26,716.83 522.58,715.55 C522.90,714.27 522.67,712.92 522.08,712.55 C521.33,712.09 521.31,711.29 522.01,709.98 C522.80,708.50 522.63,707.87 521.21,707.11 C519.74,706.32 519.41,704.95 519.47,699.82 C519.52,696.34 519.92,692.92 520.36,692.21 C520.81,691.49 520.68,690.33 520.07,689.59 C519.26,688.60 519.37,687.94 520.50,687.00 C521.66,686.04 521.75,685.41 520.89,684.37 C520.04,683.34 520.06,682.63 520.99,681.51 C521.67,680.69 521.94,679.29 521.59,678.39 C521.25,677.48 521.47,676.13 522.09,675.39 C522.72,674.64 522.97,673.36 522.65,672.54 C522.34,671.73 522.74,670.40 523.55,669.59 C524.46,668.68 524.64,667.89 524.01,667.50 C522.14,666.35 522.98,665.00 525.57,665.00 C527.66,665.00 528.02,665.36 527.52,666.95 C526.82,669.14 529.12,669.80 538.99,670.25 C543.56,670.46 544.54,670.83 544.86,672.48 C545.06,673.56 545.95,674.98 546.83,675.62 C548.06,676.52 548.16,677.10 547.27,678.18 C546.55,679.04 546.45,680.11 547.00,681.00 C547.55,681.89 547.45,682.96 546.74,683.81 C545.40,685.43 545.04,695.97 546.27,697.67 C546.76,698.35 546.59,699.69 545.87,700.84 C544.87,702.44 544.87,703.14 545.90,704.38 C546.60,705.22 546.89,706.37 546.54,706.94 C546.19,707.50 546.37,708.82 546.93,709.87 C547.70,711.31 547.58,712.10 546.47,713.03 C545.39,713.92 545.27,714.62 546.04,715.54 C547.69,717.54 545.63,718.23 536.62,718.73 C532.15,718.98 527.83,719.58 527.00,720.06 C525.92,720.69 525.87,720.95 526.81,720.97 C527.53,720.99 527.84,721.45 527.50,722.00 ZM 615.69 717.80 C613.64,719.44 603.75,719.96 599.50,718.66 C596.61,717.77 595.50,716.88 595.50,715.46 C595.50,714.38 595.12,712.92 594.66,712.21 C594.20,711.49 594.24,710.37 594.74,709.71 C595.25,709.04 595.49,706.70 595.29,704.50 C595.09,702.30 594.94,700.05 594.96,699.50 C594.98,698.95 595.11,695.58 595.26,692.00 C595.40,688.42 595.13,684.94 594.65,684.26 C594.17,683.58 594.06,682.29 594.41,681.39 C594.75,680.48 594.51,679.12 593.88,678.35 C592.99,677.28 593.10,676.55 594.36,675.15 C595.26,674.16 596.00,672.80 596.00,672.15 C596.00,670.33 600.50,669.00 606.63,669.00 C613.07,669.00 616.20,670.31 615.31,672.64 C614.95,673.56 615.32,674.60 616.18,675.08 C617.22,675.66 617.60,677.33 617.44,680.70 C617.32,683.34 617.68,686.06 618.23,686.74 C618.77,687.42 618.94,688.71 618.59,689.61 C618.25,690.52 618.48,691.87 619.11,692.63 C619.92,693.60 619.94,694.37 619.18,695.28 C618.53,696.06 618.46,697.13 619.00,698.00 C619.54,698.87 619.47,699.93 618.83,700.70 C618.25,701.40 618.06,702.71 618.41,703.61 C618.75,704.52 618.53,705.87 617.91,706.61 C617.28,707.36 617.06,708.71 617.41,709.61 C617.75,710.52 617.53,711.87 616.91,712.61 C616.28,713.36 616.02,714.62 616.33,715.41 C616.63,716.21 616.35,717.28 615.69,717.80 ZM 701.00 471.24 C706.49,471.69 713.28,471.37 715.84,470.55 C717.12,470.14 718.76,468.42 719.47,466.72 C720.60,464.05 720.52,463.05 718.89,459.23 C717.85,456.81 717.00,453.99 717.00,452.96 C717.00,449.56 707.75,448.22 695.50,449.84 L 690.50 450.50 L 690.41 456.50 C690.36,459.90 690.90,463.46 691.66,464.71 C692.40,465.93 693.00,467.61 693.00,468.45 C693.00,470.03 695.11,470.77 701.00,471.24 ZM 679.26 678.01 C676.09,678.02 672.59,678.27 671.47,678.57 C669.48,679.11 668.00,678.40 668.00,676.91 C668.00,676.50 669.40,675.85 671.12,675.47 C672.94,675.07 674.45,674.01 674.73,672.94 C675.54,669.82 681.19,668.62 688.56,670.01 C694.63,671.16 696.52,673.00 691.62,673.00 C690.38,673.00 688.38,674.12 687.19,675.50 C685.34,677.62 684.14,678.00 679.26,678.01 ZM 668.50 698.48 C668.50,700.48 666.58,701.31 664.21,700.34 C663.20,699.92 663.18,699.49 664.11,698.37 C665.05,697.23 664.91,696.64 663.40,695.47 C661.54,694.03 661.54,693.97 663.50,692.39 C664.89,691.26 665.12,690.63 664.25,690.30 C662.32,689.58 662.77,687.21 664.96,686.51 C667.77,685.62 671.46,687.75 670.05,689.44 C669.45,690.16 669.24,691.46 669.57,692.33 C669.90,693.19 669.80,694.49 669.34,695.20 C668.88,695.92 668.50,697.39 668.50,698.48 ZM 440.32 438.34 C439.31,439.36 431.19,439.12 430.53,438.05 C429.77,436.81 433.20,435.00 436.31,435.00 C438.85,435.00 441.48,437.19 440.32,438.34 ZM 676.48 710.97 C677.31,712.30 672.58,713.76 670.25,712.90 C667.75,711.97 667.31,710.48 669.31,709.71 C670.92,709.09 675.86,709.96 676.48,710.97 ZM 676.44 717.10 C676.13,717.59 674.78,718.00 673.44,718.00 C671.69,718.00 671.00,717.45 671.00,716.05 C671.00,714.32 671.34,714.22 674.00,715.15 C675.65,715.72 676.75,716.60 676.44,717.10 ZM 670.00 682.50 C670.00,683.33 669.13,684.00 668.06,684.00 C665.54,684.00 664.55,682.39 666.59,681.60 C669.08,680.65 670.00,680.89 670.00,682.50 ZM 671.46 706.07 C670.68,707.33 668.27,707.25 667.46,705.93 C666.49,704.36 667.57,703.73 669.94,704.48 C671.09,704.85 671.77,705.56 671.46,706.07 ZM 626.00 654.11 C626.00,654.60 624.82,655.00 623.38,655.00 C621.21,655.00 620.96,654.75 621.95,653.56 C623.17,652.10 626.00,652.48 626.00,654.11 ZM 560.00 397.00 C560.00,397.55 558.99,397.99 557.75,397.98 C555.93,397.97 555.79,397.78 557.00,397.00 C558.94,395.75 560.00,395.75 560.00,397.00 Z" fill="rgb(3,9,3)"/>
<path d="M 541.06 755.25 C529.37,754.95 525.26,754.00 526.57,751.88 C527.18,750.90 522.89,749.00 520.07,749.00 C519.08,749.00 516.58,750.35 514.50,752.00 L 510.72 755.00 L 495.80 755.00 C481.78,755.00 477.00,754.24 477.00,752.01 C477.00,751.50 475.99,750.01 474.75,748.69 C470.71,744.37 469.14,741.80 469.69,740.38 C470.04,739.46 469.13,738.59 467.09,737.88 C465.06,737.17 464.06,736.21 464.23,735.15 C464.42,734.01 463.65,733.40 461.75,733.18 C459.55,732.93 459.00,733.27 459.00,734.90 C459.00,736.36 458.08,737.18 455.75,737.79 C453.81,738.29 452.49,739.27 452.49,740.23 C452.48,741.10 451.68,742.70 450.71,743.77 C449.71,744.87 449.22,746.42 449.58,747.36 C449.97,748.36 449.71,749.00 448.91,749.00 C448.20,749.00 446.32,750.24 444.74,751.75 C441.91,754.46 441.67,754.50 426.96,754.82 C412.27,755.14 412.00,755.11 409.77,752.72 C408.52,751.39 406.50,749.78 405.29,749.14 C403.93,748.42 403.30,747.39 403.65,746.47 C403.97,745.65 403.67,744.31 403.00,743.50 C402.33,742.69 402.02,741.40 402.31,740.63 C402.60,739.87 402.33,738.73 401.70,738.10 C401.07,737.47 400.46,733.48 400.34,729.23 C400.23,724.98 399.92,718.24 399.65,714.26 C399.39,710.27 399.54,706.78 399.99,706.50 C400.44,706.23 400.56,705.05 400.26,703.90 C399.95,702.69 400.28,701.44 401.04,700.97 C402.03,700.36 402.09,699.81 401.26,698.82 C400.65,698.08 400.27,695.10 400.42,692.20 C400.57,689.30 400.31,686.69 399.84,686.40 C399.37,686.11 399.26,684.83 399.58,683.55 C399.90,682.27 399.65,680.90 399.03,680.52 C398.20,680.00 398.21,679.45 399.07,678.41 C399.97,677.33 399.97,676.66 399.06,675.57 C398.41,674.79 398.02,673.33 398.19,672.32 C398.47,670.66 397.50,670.47 387.31,670.22 L 376.12 669.94 L 374.47 673.42 C373.56,675.33 373.08,677.32 373.40,677.83 C373.72,678.35 374.04,680.96 374.13,683.63 C374.21,686.31 374.67,689.26 375.14,690.19 C375.66,691.20 375.61,692.13 375.00,692.50 C374.45,692.84 374.00,694.13 374.00,695.36 C374.00,696.59 373.48,698.12 372.84,698.76 C371.97,699.63 371.97,700.26 372.83,701.30 C373.47,702.06 373.65,703.02 373.24,703.43 C372.38,704.28 372.01,723.03 372.82,724.45 C373.84,726.22 373.97,737.90 372.98,738.51 C372.44,738.84 372.00,739.90 372.00,740.86 C372.00,741.82 371.46,743.14 370.81,743.79 C370.16,744.44 369.51,745.76 369.36,746.72 C369.22,747.68 368.60,748.63 367.98,748.84 C367.36,749.05 365.52,750.52 363.89,752.11 C361.01,754.92 360.66,755.00 350.46,755.00 C340.18,755.00 339.92,754.94 336.84,752.00 C335.12,750.35 333.33,749.00 332.87,749.00 C332.41,749.00 331.76,747.91 331.43,746.57 C331.09,745.24 330.16,743.89 329.35,743.58 C328.54,743.27 328.00,742.22 328.16,741.26 C328.32,740.29 328.13,738.99 327.73,738.36 C327.34,737.73 327.43,735.04 327.93,732.37 C328.58,728.89 328.50,727.31 327.67,726.79 C326.78,726.24 326.80,725.58 327.73,724.07 C328.41,722.98 328.70,721.38 328.37,720.53 C328.04,719.67 328.30,718.35 328.94,717.58 C329.57,716.81 329.71,715.94 329.24,715.65 C328.77,715.36 328.45,711.61 328.53,707.31 C328.60,703.02 328.25,698.96 327.75,698.29 C327.24,697.63 327.09,696.67 327.41,696.15 C327.73,695.63 327.54,692.85 326.99,689.96 C326.34,686.54 326.34,684.30 326.97,683.53 C327.62,682.75 327.57,681.97 326.82,681.22 C325.97,680.37 325.99,679.71 326.90,678.62 C327.74,677.61 327.81,676.59 327.13,675.33 C326.59,674.32 325.93,672.78 325.66,671.90 C325.31,670.74 323.48,670.14 319.14,669.75 C312.57,669.15 305.60,665.26 304.38,661.50 C304.02,660.40 303.31,659.23 302.79,658.90 C301.79,658.25 300.88,654.08 300.84,650.00 C300.83,648.62 300.41,647.00 299.90,646.38 C299.31,645.67 299.52,644.81 300.49,644.01 C301.32,643.32 302.00,641.92 302.00,640.90 C302.00,639.75 302.96,638.80 304.50,638.41 C305.88,638.07 307.00,637.41 307.00,636.96 C307.00,635.29 310.20,633.02 314.01,632.00 C318.99,630.66 382.69,629.69 383.47,630.94 C383.78,631.45 386.61,632.17 389.77,632.56 C396.11,633.32 399.36,634.62 398.49,636.02 C397.69,637.31 402.39,638.33 405.12,637.46 C406.37,637.07 408.16,635.79 409.11,634.62 C410.67,632.69 411.81,632.50 422.16,632.50 C431.66,632.50 434.03,632.82 436.75,634.47 C438.54,635.55 440.00,636.73 440.00,637.10 C440.00,637.47 440.84,637.99 441.87,638.26 C443.22,638.61 443.93,640.07 444.46,643.62 C444.86,646.30 445.63,649.04 446.18,649.70 C446.72,650.36 446.87,651.83 446.51,652.96 C446.05,654.42 446.39,655.20 447.68,655.67 C448.68,656.03 450.31,657.15 451.29,658.16 C453.32,660.25 457.20,660.48 465.06,658.99 C471.13,657.84 475.03,654.85 474.27,651.93 C473.98,650.80 474.27,650.00 474.99,650.00 C475.78,650.00 476.01,649.16 475.62,647.61 C475.24,646.11 475.57,644.78 476.50,644.00 C477.31,643.33 477.75,642.41 477.48,641.97 C476.82,640.90 479.77,638.00 481.50,638.00 C482.25,638.00 483.14,637.14 483.47,636.09 C483.80,635.04 484.85,633.84 485.79,633.43 C493.88,629.86 509.84,631.09 513.56,635.58 C514.73,636.99 517.12,638.30 519.06,638.61 C522.80,639.21 528.46,637.55 527.57,636.12 C526.72,634.74 528.98,633.50 535.00,632.03 C538.62,631.15 549.38,630.56 566.50,630.30 C580.80,630.09 593.62,629.87 595.00,629.80 C596.38,629.74 601.01,630.49 605.30,631.46 C611.22,632.80 613.47,633.79 614.64,635.57 C615.49,636.86 617.04,638.19 618.09,638.53 C619.22,638.89 620.00,640.05 620.00,641.37 C620.00,642.60 620.52,644.12 621.16,644.76 C622.03,645.63 622.02,646.27 621.09,647.39 C620.10,648.58 620.24,649.06 621.84,649.91 C624.56,651.37 630.00,649.43 630.00,647.00 C630.00,645.90 631.15,644.80 632.92,644.18 C634.53,643.62 636.35,642.22 636.96,641.08 C637.57,639.94 638.97,639.00 640.08,639.00 C641.19,639.00 643.30,637.79 644.79,636.30 C648.22,632.87 652.24,632.25 672.42,632.06 C681.17,631.98 688.70,631.68 689.16,631.40 C689.94,630.92 708.30,632.55 712.53,633.48 C715.63,634.16 721.00,639.42 721.00,641.78 C721.00,642.94 721.47,644.17 722.04,644.53 C722.61,644.88 722.82,645.99 722.50,647.00 C722.18,648.01 722.40,649.13 722.99,649.49 C724.44,650.39 723.13,657.26 721.30,658.33 C720.53,658.79 719.49,660.21 719.00,661.49 C718.47,662.90 716.98,664.07 715.20,664.46 C713.59,664.81 711.37,666.14 710.26,667.42 C708.96,668.91 706.59,669.98 703.60,670.43 C698.96,671.13 698.09,673.00 702.40,673.00 C703.66,673.00 705.49,673.88 706.47,674.96 C707.45,676.05 710.57,677.61 713.41,678.43 C718.51,679.91 723.00,684.06 723.00,687.29 C723.00,688.05 723.33,689.00 723.74,689.41 C724.73,690.40 724.95,703.23 724.00,704.50 C723.24,705.51 723.47,712.61 724.64,723.50 C725.78,734.23 725.40,741.90 723.63,743.86 C722.73,744.85 722.00,746.15 722.00,746.75 C722.00,747.35 720.46,748.79 718.57,749.96 C716.68,751.12 714.97,752.58 714.77,753.19 C713.93,755.71 655.33,756.96 649.85,754.58 C648.94,754.18 647.98,753.04 647.72,752.04 C647.44,750.98 645.91,749.92 644.07,749.52 C642.33,749.13 640.36,747.93 639.70,746.84 C639.04,745.75 637.04,744.24 635.25,743.48 C633.46,742.72 632.00,741.45 632.00,740.65 C632.00,739.85 630.62,738.71 628.92,738.12 C626.46,737.27 625.98,736.65 626.49,735.03 C627.04,733.29 626.69,733.00 624.07,733.00 C620.99,733.00 619.91,734.39 622.25,735.34 C623.11,735.69 622.79,736.43 621.25,737.68 C619.62,739.01 618.92,740.75 618.75,743.96 C618.55,747.42 617.80,749.11 615.38,751.54 C612.26,754.67 612.23,754.68 598.47,755.34 C585.32,755.97 568.30,755.94 541.06,755.25 ZM 307.25 608.42 C304.36,606.47 302.00,604.25 302.00,603.48 C302.00,602.72 301.39,601.74 300.65,601.30 C298.99,600.32 297.76,593.26 299.11,592.43 C299.64,592.10 299.80,590.95 299.46,589.87 C299.12,588.79 299.34,587.29 299.97,586.54 C300.75,585.60 300.77,584.98 300.05,584.53 C299.33,584.09 299.32,583.28 299.99,582.01 C300.54,580.98 300.72,579.43 300.38,578.56 C300.05,577.69 300.28,576.36 300.91,575.61 C301.53,574.87 301.77,573.57 301.45,572.73 C301.13,571.89 301.34,570.91 301.93,570.54 C302.52,570.18 303.00,569.16 303.00,568.27 C303.00,566.32 311.46,558.00 313.45,558.00 C314.23,558.00 315.16,557.07 315.52,555.94 C315.88,554.81 317.26,553.38 318.59,552.78 C319.91,552.17 321.00,550.87 321.00,549.87 C321.00,548.88 321.90,547.59 323.00,547.00 C324.10,546.41 325.00,545.28 325.00,544.49 C325.00,543.70 326.35,542.35 328.00,541.50 C329.65,540.65 331.00,539.28 331.00,538.45 C331.00,537.63 332.03,536.49 333.29,535.91 C334.55,535.34 336.01,533.91 336.54,532.73 C337.07,531.55 338.94,530.23 340.75,529.77 C343.02,529.19 344.00,528.36 344.00,526.99 C344.00,525.74 344.90,524.81 346.50,524.41 C348.04,524.02 349.00,523.07 349.00,521.93 C349.00,520.91 349.90,519.59 351.00,519.00 C352.10,518.41 353.00,517.06 353.00,516.00 C353.00,514.94 353.87,513.61 354.93,513.04 C356.00,512.47 357.12,511.18 357.44,510.18 C357.76,509.18 359.59,507.61 361.51,506.70 C363.43,505.78 365.00,504.55 365.00,503.97 C365.00,503.38 366.61,502.22 368.59,501.40 C370.99,500.40 371.99,499.42 371.62,498.46 C371.26,497.52 371.93,496.81 373.54,496.40 C374.89,496.06 376.05,495.49 376.11,495.14 C376.16,494.79 376.28,492.40 376.36,489.83 C376.44,487.26 376.83,484.84 377.22,484.45 C377.61,484.06 377.49,482.92 376.96,481.93 C376.37,480.82 376.35,479.90 376.93,479.55 C377.44,479.23 377.76,476.69 377.65,473.91 C377.53,471.13 377.79,468.63 378.22,468.37 C378.65,468.10 379.00,466.59 379.00,465.01 C379.00,462.99 379.61,461.94 381.04,461.49 C382.47,461.03 382.91,460.28 382.49,458.98 C382.09,457.72 382.58,456.76 384.03,455.98 C385.23,455.34 385.92,454.24 385.62,453.45 C385.33,452.69 385.85,451.30 386.78,450.37 C388.04,449.10 388.50,446.75 388.60,441.09 C388.67,436.91 388.82,433.27 388.94,433.00 C389.65,431.35 389.48,425.30 388.70,424.26 C388.19,423.58 388.03,422.36 388.34,421.54 C388.66,420.73 388.52,419.82 388.04,419.52 C387.15,418.98 387.32,411.94 388.25,410.36 C388.53,409.89 388.53,407.99 388.25,406.15 C387.86,403.57 387.08,402.57 384.84,401.79 C382.72,401.06 382.08,400.31 382.49,399.03 C382.80,398.07 382.36,396.71 381.52,396.02 C380.69,395.32 380.00,393.93 380.00,392.91 C380.00,391.90 379.10,390.59 378.00,390.00 C376.90,389.41 376.00,388.29 376.00,387.51 C376.00,386.74 375.42,385.74 374.70,385.30 C372.76,384.10 368.89,376.99 369.57,375.88 C369.90,375.35 369.71,374.35 369.14,373.66 C368.56,372.97 368.30,369.83 368.55,366.58 C368.90,361.97 369.52,360.25 371.49,358.42 C372.87,357.14 374.00,355.66 374.00,355.14 C374.00,353.71 381.40,352.72 386.12,353.52 C388.84,353.98 390.40,354.82 390.71,355.99 C390.96,356.96 392.26,358.25 393.58,358.86 C394.92,359.47 396.00,360.82 396.00,361.88 C396.00,363.12 397.07,364.18 399.00,364.85 C400.65,365.43 402.00,366.58 402.00,367.41 C402.00,370.49 409.32,372.28 411.80,369.80 C412.46,369.14 413.00,367.81 413.00,366.84 C413.00,365.86 413.93,364.57 415.06,363.97 C416.68,363.10 416.88,362.56 415.98,361.48 C415.06,360.37 415.49,359.93 418.17,359.24 C420.53,358.63 421.60,357.72 421.83,356.13 C422.01,354.89 422.80,353.63 423.58,353.33 C424.36,353.03 425.00,351.76 425.00,350.50 C425.00,349.24 425.73,347.94 426.61,347.59 C427.62,347.21 428.04,346.25 427.72,345.02 C427.44,343.95 427.84,342.55 428.60,341.91 C429.37,341.28 430.00,339.94 430.00,338.95 C430.00,337.73 431.82,336.31 435.62,334.57 C442.47,331.44 442.77,331.43 451.50,334.38 C456.43,336.05 458.60,337.30 458.85,338.62 C459.05,339.66 459.88,341.26 460.70,342.19 C461.52,343.11 461.86,344.42 461.45,345.09 C461.03,345.76 461.32,346.80 462.10,347.40 C464.01,348.90 466.06,354.84 464.91,355.55 C464.41,355.86 464.00,357.20 464.00,358.52 C464.00,359.91 463.15,361.38 462.00,362.00 C460.90,362.59 460.00,363.66 460.00,364.38 C460.00,365.10 459.10,366.50 458.00,367.50 C456.90,368.50 456.00,370.11 456.00,371.10 C456.00,372.08 455.52,373.18 454.93,373.54 C454.34,373.91 454.13,374.90 454.46,375.75 C454.78,376.59 454.34,378.07 453.48,379.02 C452.62,379.97 452.05,381.35 452.21,382.09 C452.37,382.82 451.49,383.89 450.25,384.45 C449.01,385.01 448.00,386.24 448.00,387.18 C448.00,388.12 447.09,389.52 445.98,390.30 C444.70,391.20 444.19,392.33 444.59,393.37 C444.94,394.28 444.64,395.73 443.93,396.59 C442.94,397.78 442.91,398.33 443.81,398.89 C444.71,399.44 444.66,400.08 443.61,401.52 C442.85,402.56 442.45,404.01 442.73,404.75 C443.01,405.48 442.49,406.91 441.56,407.93 C440.25,409.39 440.16,409.91 441.19,410.33 C442.14,410.72 441.89,411.41 440.25,412.85 C439.01,413.93 438.00,415.52 438.00,416.38 C438.00,417.23 437.10,418.41 436.01,418.99 C434.31,419.90 434.20,420.35 435.26,422.06 C436.28,423.70 436.23,424.24 435.00,425.05 C433.70,425.91 433.75,426.23 435.40,427.49 C437.22,428.88 437.19,428.98 434.65,429.94 C433.19,430.50 432.00,431.40 432.00,431.96 C432.00,433.56 436.96,434.36 440.89,433.39 C443.84,432.66 444.44,432.09 444.19,430.28 C443.96,428.62 444.52,427.91 446.44,427.43 C448.48,426.91 448.87,426.34 448.42,424.53 C447.98,422.80 448.36,422.14 450.02,421.71 C451.66,421.28 452.02,420.65 451.53,419.10 C451.01,417.46 451.43,416.95 453.69,416.44 C459.20,415.21 459.79,414.91 460.26,413.10 C460.56,411.96 462.19,410.92 464.53,410.36 C467.07,409.76 468.40,408.85 468.59,407.58 C468.89,405.54 470.69,404.04 472.87,404.02 C473.74,404.01 474.04,403.28 473.71,401.99 C473.36,400.66 473.82,399.63 475.05,398.97 C476.18,398.37 476.69,397.35 476.33,396.42 C475.97,395.49 476.58,394.28 477.87,393.38 C479.04,392.56 480.00,391.08 480.00,390.09 C480.00,388.78 481.16,388.03 484.25,387.36 C487.40,386.68 488.43,386.01 488.22,384.77 C488.01,383.57 489.05,382.79 491.85,382.04 C494.37,381.36 495.96,380.28 496.29,379.00 C496.57,377.92 498.00,376.57 499.45,376.02 C501.11,375.39 501.98,374.39 501.80,373.32 C501.59,372.14 502.52,371.32 504.82,370.65 C507.60,369.83 508.04,369.31 507.57,367.40 C507.14,365.72 507.51,364.97 509.00,364.50 C510.10,364.15 511.00,362.99 511.00,361.91 C511.00,360.80 512.07,359.47 513.50,358.82 C514.88,358.19 516.00,356.92 516.00,355.98 C516.00,354.93 517.23,353.94 519.24,353.36 C521.23,352.79 522.63,351.67 522.85,350.46 C523.06,349.38 523.89,348.12 524.70,347.65 C525.65,347.11 525.96,345.98 525.58,344.46 C525.26,343.18 525.45,341.84 526.00,341.50 C526.55,341.16 526.74,339.83 526.42,338.55 C526.10,337.27 526.33,335.92 526.92,335.55 C527.67,335.09 527.69,334.29 527.00,333.00 C526.33,331.74 526.33,330.92 527.00,330.50 C527.55,330.16 527.74,328.83 527.42,327.55 C527.10,326.27 527.28,324.94 527.83,324.61 C528.37,324.27 528.57,323.08 528.28,321.95 C527.94,320.67 528.41,319.42 529.52,318.61 C530.50,317.89 531.02,316.85 530.68,316.29 C530.33,315.73 530.95,314.45 532.06,313.45 C533.17,312.45 533.85,311.05 533.58,310.34 C533.31,309.63 534.01,308.40 535.15,307.61 C536.29,306.81 536.96,305.74 536.64,305.23 C536.32,304.71 536.67,303.46 537.42,302.45 C538.45,301.03 538.50,300.17 537.63,298.77 C536.76,297.36 536.81,296.75 537.86,296.09 C538.69,295.58 538.96,294.46 538.57,293.21 C538.21,292.09 538.31,290.93 538.79,290.63 C539.27,290.34 539.71,287.93 539.77,285.28 C539.92,278.33 541.93,275.22 548.08,272.37 C555.40,268.98 559.84,268.17 564.00,269.48 C572.06,272.02 576.05,276.25 576.45,282.71 C576.53,283.93 576.90,285.24 577.29,285.62 C577.67,286.00 577.48,286.92 576.87,287.66 C576.10,288.59 576.07,289.38 576.79,290.25 C577.36,290.94 577.65,293.86 577.44,296.75 C577.24,299.64 577.47,302.00 577.97,302.00 C578.46,302.00 579.15,302.90 579.50,304.00 C580.36,306.69 584.64,306.69 585.50,304.00 C585.85,302.90 586.79,302.00 587.59,302.00 C588.39,302.00 589.47,300.90 589.98,299.56 C590.49,298.22 591.83,296.63 592.95,296.03 C594.08,295.42 595.00,294.25 595.00,293.41 C595.00,292.58 596.29,291.45 597.86,290.90 C599.44,290.35 601.21,288.84 601.80,287.54 C602.39,286.24 603.81,284.88 604.94,284.52 C606.07,284.16 607.00,283.22 607.00,282.42 C607.00,281.63 607.90,280.21 609.00,279.27 C610.10,278.33 611.00,276.96 611.00,276.22 C611.00,275.49 612.34,273.45 613.99,271.70 C616.78,268.71 617.42,268.50 623.74,268.50 C631.73,268.50 634.83,269.25 637.91,271.92 C639.16,273.01 640.55,274.03 641.00,274.20 C641.44,274.36 642.38,277.96 643.09,282.18 C644.67,291.65 643.24,297.57 638.94,299.38 C635.82,300.70 631.00,306.13 631.00,308.33 C631.00,309.17 630.13,310.14 629.06,310.48 C628.00,310.82 626.99,312.09 626.81,313.30 C626.62,314.65 625.68,315.62 624.39,315.80 C623.23,315.97 621.00,317.43 619.45,319.05 C617.90,320.67 616.06,322.00 615.37,322.00 C614.68,322.00 613.52,323.04 612.80,324.31 C609.65,329.90 606.73,334.00 605.90,334.00 C605.41,334.00 605.00,334.91 605.00,336.02 C605.00,337.21 603.97,338.51 602.50,339.18 C601.12,339.81 600.00,340.95 600.00,341.71 C600.00,342.48 598.42,343.76 596.50,344.56 C594.39,345.44 593.00,346.72 593.00,347.77 C593.00,348.73 592.10,350.08 591.00,350.77 C589.90,351.45 589.00,352.63 589.00,353.39 C589.00,354.14 588.30,355.33 587.45,356.04 C586.60,356.74 586.12,357.88 586.39,358.57 C586.65,359.25 586.03,360.57 585.00,361.50 C583.97,362.43 583.36,363.77 583.63,364.49 C583.91,365.21 583.29,366.40 582.25,367.15 C581.22,367.89 580.09,369.26 579.74,370.19 C579.39,371.12 577.54,372.31 575.62,372.84 C571.85,373.88 565.00,380.03 565.00,382.37 C565.00,383.16 563.68,384.26 562.07,384.82 C559.84,385.60 559.27,386.31 559.66,387.83 C560.03,389.23 559.57,390.00 558.09,390.47 C555.35,391.34 555.43,392.82 558.25,393.53 C559.49,393.84 573.71,393.96 589.85,393.80 L 619.19 393.50 L 621.58 390.50 L 623.97 387.50 L 637.61 387.50 C650.65,387.50 651.32,387.60 652.75,389.75 C654.53,392.43 656.66,392.62 659.22,390.30 C660.25,389.36 662.57,388.60 664.36,388.60 C668.36,388.60 676.01,393.36 678.62,397.46 C679.65,399.10 681.25,401.57 682.18,402.96 C683.10,404.36 683.89,406.22 683.93,407.10 C684.03,409.35 686.89,414.83 688.43,415.74 C691.34,417.45 693.05,423.04 693.24,431.43 C693.39,437.97 693.07,440.27 691.82,441.68 C690.93,442.68 690.04,444.40 689.84,445.50 C689.63,446.69 688.54,447.63 687.14,447.83 C685.41,448.08 684.94,448.65 685.31,450.06 C685.64,451.32 684.49,453.40 681.90,456.23 C679.76,458.58 678.00,461.19 678.00,462.03 C678.00,462.87 677.21,464.30 676.25,465.21 C675.29,466.12 673.92,467.57 673.21,468.43 C671.85,470.08 661.50,470.69 659.48,469.23 C657.17,467.58 654.82,462.78 655.83,461.77 C656.39,461.21 656.62,460.17 656.34,459.46 C656.07,458.74 656.31,457.29 656.88,456.23 C657.57,454.93 657.58,453.98 656.89,453.29 C656.20,452.60 656.37,451.77 657.44,450.71 C658.30,449.85 659.00,448.40 659.00,447.48 C659.00,446.56 660.33,445.33 662.00,444.69 C664.09,443.90 664.84,443.07 664.48,441.92 C664.19,441.02 664.62,439.73 665.43,439.06 C666.62,438.07 666.68,437.45 665.71,435.88 C664.74,434.33 664.78,433.77 665.86,433.09 C666.69,432.58 666.96,431.46 666.57,430.21 C666.21,429.09 666.42,427.86 667.02,427.48 C667.80,427.01 667.69,426.30 666.67,425.15 C665.86,424.24 665.04,422.60 664.84,421.50 C664.52,419.74 663.57,419.46 657.00,419.20 C647.97,418.84 645.39,419.39 644.75,421.83 C644.40,423.20 642.64,424.01 638.08,424.90 C634.68,425.57 631.65,426.74 631.36,427.49 C631.08,428.24 629.49,429.33 627.83,429.91 C626.18,430.49 624.59,431.87 624.30,432.98 C624.00,434.09 623.71,435.07 623.63,435.15 C623.56,435.24 614.28,435.59 603.00,435.93 L 582.50 436.56 L 575.21 439.96 C570.64,442.09 568.10,443.83 568.41,444.62 C569.18,446.63 560.21,447.91 542.00,448.37 C529.74,448.69 524.73,449.19 522.50,450.34 C519.20,452.04 508.66,453.98 502.66,453.99 C499.69,454.00 498.70,454.44 498.30,455.96 C498.01,457.08 496.31,458.40 494.33,459.06 C492.02,459.82 491.04,460.67 491.40,461.60 C491.70,462.39 490.90,463.67 489.57,464.54 C488.27,465.40 486.99,466.91 486.73,467.91 C486.43,469.06 484.92,469.98 482.58,470.42 C480.03,470.90 478.64,471.81 478.03,473.43 C477.54,474.71 475.96,476.04 474.48,476.42 C472.67,476.87 472.00,477.56 472.39,478.57 C472.75,479.52 472.06,480.47 470.48,481.19 C469.12,481.81 468.00,483.14 468.00,484.15 C468.00,485.16 467.10,486.55 466.00,487.23 C464.90,487.92 464.00,489.28 464.00,490.27 C464.00,491.25 462.92,492.46 461.60,492.96 C460.28,493.46 458.55,494.80 457.76,495.93 C456.97,497.06 454.86,498.28 453.08,498.63 C450.96,499.06 449.54,500.09 448.96,501.61 C448.47,502.89 446.93,504.23 445.54,504.58 C443.96,504.98 443.00,505.92 443.00,507.07 C443.00,508.09 442.08,509.42 440.95,510.03 C439.53,510.78 439.09,511.72 439.52,513.06 C439.98,514.52 439.50,515.24 437.57,515.97 C436.04,516.56 435.00,517.73 435.00,518.88 C435.00,520.12 433.93,521.18 432.00,521.85 C430.35,522.43 429.00,523.59 429.00,524.43 C429.00,525.28 427.46,526.62 425.58,527.40 C423.70,528.19 421.66,529.77 421.05,530.92 C420.38,532.16 418.94,533.00 417.46,533.00 C415.55,533.00 415.00,533.52 415.00,535.34 C415.00,536.86 414.13,538.08 412.50,538.82 C411.04,539.48 410.00,540.79 410.00,541.96 C410.00,543.26 409.13,544.18 407.50,544.59 C405.92,544.99 405.00,545.92 405.00,547.13 C405.00,548.20 403.90,549.54 402.50,550.18 C401.12,550.81 400.00,552.10 400.00,553.05 C400.00,554.14 398.51,555.38 396.00,556.38 C393.80,557.26 392.00,558.46 392.00,559.04 C392.00,559.63 390.39,560.78 388.41,561.60 C386.01,562.61 385.01,563.58 385.38,564.54 C385.73,565.45 384.85,566.54 383.00,567.50 C381.18,568.44 380.28,569.55 380.61,570.43 C380.92,571.24 380.26,572.33 379.08,572.96 C377.93,573.57 377.00,574.72 377.00,575.51 C377.00,576.31 375.88,577.69 374.50,578.59 C373.12,579.49 372.00,580.89 372.00,581.70 C372.00,582.51 370.65,583.68 369.00,584.31 C367.35,584.93 365.76,586.19 365.46,587.11 C365.17,588.03 363.60,589.34 361.97,590.01 C360.25,590.73 359.00,591.99 359.00,593.02 C359.00,594.12 357.80,595.22 355.89,595.89 C353.70,596.65 352.95,597.43 353.37,598.52 C353.75,599.52 353.13,600.44 351.59,601.14 C350.29,601.73 348.73,603.30 348.13,604.61 C347.53,605.92 346.25,607.01 345.27,607.03 C344.30,607.05 341.25,608.17 338.50,609.52 C334.15,611.66 332.14,611.98 323.00,611.97 C312.63,611.96 312.43,611.92 307.25,608.42 ZM 307.00 569.10 L 307.00 603.00 L 341.00 603.00 L 341.12 598.75 C341.18,596.41 341.29,593.83 341.37,593.00 C341.46,591.90 343.01,591.42 347.25,591.20 L 353.00 590.90 L 353.00 580.00 L 364.00 580.00 L 364.00 569.10 L 369.75 568.80 C375.38,568.51 375.50,568.44 375.62,565.50 C375.82,560.30 375.73,558.26 376.68,557.47 C377.30,556.96 378.35,556.97 380.18,556.99 C380.58,557.00 381.02,557.00 381.50,557.00 L 387.00 557.00 L 387.00 546.00 L 391.25 545.98 C397.05,545.96 397.82,545.24 398.19,539.48 L 398.50 534.50 L 404.32 534.20 C409.95,533.91 410.13,533.81 409.96,531.20 C409.44,523.10 409.50,523.00 415.45,523.00 L 420.90 523.00 L 421.50 511.50 L 433.00 510.90 L 433.00 500.00 L 444.00 500.00 L 444.00 489.00 L 454.74 489.00 L 455.42 483.00 L 456.10 477.00 L 467.00 477.00 L 467.00 466.00 L 478.00 466.00 L 478.00 455.10 L 489.50 454.50 L 490.10 443.00 L 522.00 443.00 L 522.00 440.62 C522.00,438.99 522.71,438.04 524.25,437.63 C525.49,437.30 536.06,437.02 547.75,437.01 L 569.00 437.00 L 569.00 426.00 L 626.00 426.00 L 626.00 415.00 L 648.00 415.00 L 648.00 393.00 L 626.00 393.00 L 626.00 404.00 L 558.00 404.00 L 558.00 415.00 L 523.91 415.00 L 524.20 408.25 L 524.50 401.50 L 529.75 401.20 L 535.00 400.90 L 535.00 391.00 L 547.00 391.00 L 547.00 381.00 L 558.00 381.00 L 558.00 369.00 L 569.00 369.00 L 569.00 358.00 L 581.00 358.00 L 581.00 341.00 L 592.00 341.00 L 592.00 330.00 L 603.00 330.00 L 603.00 318.00 L 615.00 318.00 L 615.00 306.00 L 626.00 306.00 L 626.00 296.00 L 638.00 296.00 L 638.00 276.27 L 627.51 275.57 C621.74,275.18 616.57,275.15 616.01,275.49 C615.46,275.84 615.00,279.19 615.00,282.94 C615.00,290.46 614.52,290.96 607.30,290.99 C604.15,291.00 604.10,291.08 603.80,296.25 L 603.50 301.50 L 592.00 302.10 L 592.00 313.00 L 581.00 313.00 L 581.00 323.90 L 569.50 324.50 L 570.18 336.00 L 557.74 336.00 L 558.25 322.10 C558.53,314.46 559.06,307.71 559.44,307.10 C559.81,306.50 562.12,306.00 564.56,306.00 L 569.00 306.00 L 569.00 275.93 L 546.50 276.50 L 546.95 318.00 L 534.92 318.00 L 535.50 358.00 L 524.00 358.00 L 524.00 369.00 L 520.25 369.17 C518.19,369.27 515.60,369.38 514.50,369.44 C512.78,369.52 512.46,370.33 512.20,375.27 L 511.90 381.00 L 501.00 381.00 L 501.00 393.00 L 490.00 393.00 L 490.00 404.00 L 478.00 404.00 L 478.00 415.00 L 467.00 415.00 L 467.00 427.00 L 454.85 427.00 L 455.50 443.00 L 444.00 443.00 L 444.00 450.00 L 433.10 450.00 L 432.80 455.25 L 432.50 460.50 L 421.00 461.10 L 421.00 415.10 L 432.50 414.50 L 432.50 386.00 L 438.25 386.00 L 444.00 386.00 L 444.00 363.00 L 455.00 363.00 L 455.00 340.00 L 447.12 340.00 C442.79,340.00 437.84,340.28 436.12,340.62 L 433.00 341.25 L 433.00 364.00 L 421.00 364.00 L 421.00 381.00 L 410.00 381.00 L 409.94 386.75 C409.89,391.21 409.67,392.00 408.97,390.25 C407.86,387.50 406.44,387.43 402.35,389.93 L 399.19 391.85 L 398.61 389.68 C398.29,388.48 398.02,383.56 398.01,378.75 C398.00,370.21 397.94,370.00 395.62,370.00 C394.32,370.00 391.84,369.72 390.12,369.38 C387.09,368.77 387.00,368.60 387.00,363.33 L 387.00 357.90 L 375.50 358.50 L 375.62 365.50 C375.69,369.35 375.80,374.19 375.87,376.25 L 376.00 380.00 L 387.00 380.00 L 387.00 397.00 L 398.00 397.00 L 398.00 461.00 L 387.00 461.00 L 387.00 500.90 L 381.25 501.20 C375.89,501.48 375.49,501.67 375.42,504.00 C375.27,508.69 375.32,510.64 374.38,511.44 C373.71,512.02 372.55,512.01 370.45,512.00 C370.15,512.00 369.84,512.00 369.50,512.00 L 364.00 512.00 L 364.00 523.00 L 353.00 523.00 L 353.00 535.00 L 341.00 535.00 L 341.00 546.00 L 330.00 546.00 L 330.00 558.00 L 319.10 558.00 L 318.80 563.25 L 318.50 568.50 L 312.75 568.80 ZM 561.00 612.02 C559.08,611.61 557.85,611.20 558.29,611.13 C559.95,610.85 556.89,607.12 554.75,606.82 C553.49,606.64 552.49,605.79 552.48,604.89 C552.48,604.00 551.86,602.54 551.11,601.64 C550.03,600.33 550.01,599.70 550.99,598.51 C551.67,597.69 551.95,596.30 551.61,595.42 C551.19,594.34 551.65,593.64 553.00,593.29 C554.10,593.00 555.06,592.37 555.12,591.88 C555.19,591.40 555.31,590.45 555.38,589.77 C555.48,588.71 557.28,587.89 562.85,586.36 C563.64,586.14 563.95,585.31 563.59,584.36 C563.24,583.47 563.45,582.17 564.03,581.46 C565.87,579.24 563.12,578.58 549.71,578.03 C539.84,577.62 536.71,577.16 536.00,576.00 C535.49,575.17 533.15,574.01 530.79,573.41 C528.15,572.74 526.62,571.82 526.80,571.01 C526.96,570.29 526.79,568.98 526.41,568.10 C525.31,565.57 525.10,559.06 526.09,558.44 C526.59,558.13 527.00,556.99 527.00,555.91 C527.00,553.97 528.08,553.18 531.67,552.50 C532.68,552.31 533.67,552.12 533.87,552.08 C534.08,552.03 533.66,551.29 532.94,550.42 C531.85,549.12 531.87,548.69 533.06,547.94 C533.85,547.44 535.06,547.02 535.75,547.02 C536.44,547.01 537.00,545.90 537.00,544.56 C537.00,543.22 537.39,541.88 537.86,541.58 C539.00,540.88 538.98,533.11 537.85,532.41 C537.36,532.11 537.27,531.38 537.63,530.78 C538.00,530.19 538.38,528.42 538.47,526.85 C538.57,525.28 538.73,522.91 538.83,521.57 C538.93,520.09 539.81,518.88 541.04,518.49 C542.51,518.02 542.91,517.30 542.47,515.89 C541.98,514.37 542.51,513.72 544.92,512.88 C546.69,512.26 548.00,511.10 548.00,510.14 C548.00,509.23 548.93,507.90 550.08,507.18 C551.74,506.14 551.92,505.60 550.95,504.44 C550.02,503.32 550.04,502.65 551.06,501.42 C552.13,500.14 552.13,499.70 551.08,499.05 C550.25,498.54 550.04,497.44 550.50,496.00 C550.96,494.54 550.74,493.44 549.86,492.86 C548.76,492.13 548.86,491.68 550.40,490.51 C551.91,489.36 552.05,488.77 551.10,487.62 C550.14,486.47 550.32,485.89 551.97,484.73 C553.28,483.82 553.81,482.68 553.42,481.65 C553.01,480.58 553.43,479.82 554.65,479.44 C558.13,478.35 559.50,477.24 559.23,475.72 C559.07,474.80 560.18,473.79 562.06,473.13 C564.48,472.29 565.02,471.63 564.54,470.11 C564.04,468.56 564.53,468.04 566.96,467.51 C568.97,467.07 570.00,466.23 570.00,465.05 C570.00,464.06 571.49,461.62 573.32,459.63 L 576.64 456.01 L 586.07 455.78 C596.68,455.52 600.00,456.29 600.00,458.99 C600.00,460.23 600.98,461.06 603.00,461.50 C605.53,462.06 605.91,462.52 605.42,464.48 C604.92,466.45 605.30,466.91 607.92,467.48 C609.65,467.86 611.00,468.80 611.00,469.63 C611.00,470.43 612.35,471.86 613.99,472.80 C615.64,473.73 616.99,475.26 616.99,476.18 C617.00,477.11 617.90,478.15 619.00,478.50 C620.10,478.85 621.06,479.55 621.12,480.07 C621.19,480.58 621.31,481.49 621.38,482.08 C621.44,482.67 622.20,483.69 623.05,484.33 C624.66,485.55 624.72,487.35 623.63,500.19 C623.11,506.24 623.25,506.94 625.03,507.51 C626.11,507.85 627.00,509.01 627.00,510.09 C627.00,511.20 628.07,512.53 629.50,513.18 C630.88,513.81 632.00,514.85 632.00,515.51 C632.00,516.16 632.90,517.50 634.00,518.50 C635.10,519.50 636.00,520.86 636.00,521.53 C636.00,522.20 636.59,523.24 637.31,523.84 C638.67,524.97 638.94,531.67 637.71,533.67 C637.31,534.30 637.27,535.54 637.61,536.42 C637.95,537.30 637.70,538.65 637.06,539.42 C636.27,540.38 636.23,541.03 636.95,541.47 C637.53,541.83 638.00,543.11 638.00,544.32 C638.00,545.65 638.90,546.92 640.25,547.51 C641.49,548.06 642.52,549.40 642.55,550.50 C642.57,551.60 643.13,552.39 643.79,552.25 C645.34,551.93 650.29,559.78 650.57,563.00 C650.85,566.26 648.03,571.86 645.74,572.58 C644.75,572.90 642.94,574.22 641.72,575.51 C639.61,577.75 638.75,577.89 624.83,578.19 C616.76,578.36 609.79,578.87 609.33,579.33 C608.88,579.79 609.30,580.74 610.27,581.45 C611.26,582.18 611.78,583.42 611.45,584.27 C611.03,585.37 611.88,586.14 614.47,586.99 C616.45,587.64 618.78,589.26 619.65,590.59 C620.52,591.92 621.80,593.00 622.51,593.00 C623.23,593.00 623.97,594.60 624.22,596.73 C624.67,600.62 623.20,606.00 621.68,606.00 C621.20,606.00 619.44,607.46 617.77,609.25 L 614.73 612.50 L 589.62 612.64 C575.80,612.72 562.92,612.44 561.00,612.02 ZM 410.00 639.00 L 410.00 748.00 L 444.00 748.00 L 444.00 728.00 L 447.25 727.99 C454.09,727.96 455.00,727.24 455.00,721.88 L 455.00 717.00 L 467.00 717.00 L 467.00 721.89 C467.00,727.38 467.72,728.00 474.08,728.00 L 478.00 728.00 L 478.16 736.25 C478.25,740.79 478.25,745.29 478.17,746.25 C478.04,747.85 479.44,748.00 495.01,748.00 L 512.00 748.00 L 512.00 639.00 L 485.00 639.00 L 484.86 641.75 C484.78,643.26 484.67,657.10 484.61,672.50 L 484.50 700.50 L 472.97 700.50 L 472.60 685.50 C472.39,677.25 472.17,669.49 472.11,668.25 C472.00,666.06 471.71,666.00 461.00,666.00 L 450.00 666.00 L 450.00 699.77 L 444.42 700.47 C441.34,700.85 438.53,700.87 438.17,700.50 C437.80,700.13 437.43,687.38 437.35,672.17 C437.27,656.95 437.16,643.26 437.10,641.75 L 437.00 639.00 ZM 557.00 594.00 L 557.00 604.00 L 619.00 604.00 L 619.00 594.07 L 608.25 593.78 L 597.50 593.50 L 597.62 570.50 L 645.50 569.50 L 645.80 563.75 L 646.10 558.00 L 633.00 558.00 L 633.00 546.00 L 629.25 545.99 C621.73,545.96 621.00,545.37 621.00,539.38 C621.00,534.12 621.06,534.00 623.88,534.00 C625.46,534.00 628.18,533.71 629.92,533.37 C633.04,532.74 633.09,532.64 632.80,527.62 C632.59,524.00 632.07,522.46 631.00,522.32 C630.17,522.22 627.36,521.85 624.75,521.50 L 620.00 520.88 L 620.00 509.10 L 613.75 508.80 L 607.50 508.50 L 607.47 504.00 C607.43,497.21 607.62,497.00 613.61,497.00 L 619.00 497.00 L 619.00 485.00 L 607.00 485.00 L 607.00 473.00 L 602.75 472.99 C594.69,472.96 594.00,472.44 594.00,466.38 L 594.00 461.00 L 582.00 461.00 L 582.00 472.90 L 575.75 473.20 L 569.50 473.50 L 569.91 485.00 L 557.00 485.00 L 557.00 497.00 L 569.00 497.00 L 569.00 509.00 L 556.00 509.00 L 556.00 522.00 L 544.00 522.00 L 544.00 532.90 L 556.00 534.26 L 556.00 546.00 L 543.00 546.00 L 543.00 558.00 L 531.00 558.00 L 531.00 570.00 L 577.77 570.00 L 578.37 572.25 C579.15,575.17 579.15,582.15 578.35,588.75 L 577.72 594.00 ZM 648.50 738.50 L 648.46 748.00 L 717.00 748.00 L 717.00 684.00 L 677.00 684.00 L 677.00 703.00 L 679.88 703.00 C681.46,703.00 684.16,703.28 685.88,703.62 L 689.00 704.25 L 689.00 727.00 L 666.00 727.00 L 666.00 722.12 C666.00,716.70 665.12,716.04 657.81,716.01 L 654.13 716.00 L 654.50 695.75 C654.70,684.61 654.89,674.49 654.93,673.25 C654.99,671.20 655.48,671.00 660.50,671.00 L 666.00 671.00 L 666.00 661.00 L 672.75 660.76 C676.46,660.63 683.33,660.50 688.00,660.48 C692.67,660.45 701.11,660.34 706.75,660.22 L 717.00 660.00 L 717.00 639.00 L 649.00 639.00 L 649.00 649.00 L 638.00 649.00 L 638.00 660.00 L 627.00 660.00 L 627.00 727.00 L 630.92 727.00 C637.27,727.00 638.00,727.63 638.00,733.05 L 638.00 737.90 ZM 530.00 737.50 L 530.00 748.00 L 613.00 748.00 L 613.00 727.00 L 585.00 727.00 L 585.00 660.00 L 613.00 660.00 L 613.00 639.00 L 530.00 639.00 L 530.00 660.00 L 557.00 660.00 L 557.00 727.10 L 545.25 727.00 C538.79,726.94 532.71,726.91 531.75,726.94 C530.20,726.99 530.00,728.19 530.00,737.50 ZM 337.00 659.74 L 337.00 748.00 L 363.98 748.00 L 364.24 704.25 L 364.50 660.50 L 393.00 659.95 L 393.00 639.00 L 306.93 639.00 L 307.22 649.75 L 307.50 660.50 L 322.25 660.12 ZM 527.50 722.00 C527.84,721.45 527.53,720.99 526.81,720.97 C525.87,720.95 525.92,720.69 527.00,720.06 C527.83,719.58 532.15,718.98 536.62,718.73 C545.63,718.23 547.69,717.54 546.04,715.54 C545.27,714.62 545.39,713.92 546.47,713.03 C547.58,712.10 547.70,711.31 546.93,709.87 C546.37,708.82 546.19,707.50 546.54,706.94 C546.89,706.37 546.60,705.22 545.90,704.38 C544.87,703.14 544.87,702.44 545.87,700.84 C546.59,699.69 546.76,698.35 546.27,697.67 C545.04,695.97 545.40,685.43 546.74,683.81 C547.45,682.96 547.55,681.89 547.00,681.00 C546.45,680.11 546.55,679.04 547.27,678.18 C548.16,677.10 548.06,676.52 546.83,675.62 C545.95,674.98 545.06,673.56 544.86,672.48 C544.54,670.83 543.56,670.46 538.99,670.25 C529.12,669.80 526.82,669.14 527.52,666.95 C528.02,665.36 527.66,665.00 525.57,665.00 C522.98,665.00 522.14,666.35 524.01,667.50 C524.64,667.89 524.46,668.68 523.55,669.59 C522.74,670.40 522.34,671.73 522.65,672.54 C522.97,673.36 522.72,674.64 522.09,675.39 C521.47,676.13 521.25,677.48 521.59,678.39 C521.94,679.29 521.67,680.69 520.99,681.51 C520.06,682.63 520.04,683.34 520.89,684.37 C521.75,685.41 521.66,686.04 520.50,687.00 C519.37,687.94 519.26,688.60 520.07,689.59 C520.68,690.33 520.81,691.49 520.36,692.21 C519.92,692.92 519.52,696.34 519.47,699.82 C519.41,704.95 519.74,706.32 521.21,707.11 C522.63,707.87 522.80,708.50 522.01,709.98 C521.31,711.29 521.33,712.09 522.08,712.55 C522.67,712.92 522.90,714.27 522.58,715.55 C522.26,716.83 522.46,718.17 523.04,718.52 C523.61,718.88 523.81,720.03 523.47,721.08 C523.01,722.54 523.35,723.00 524.87,723.00 C525.98,723.00 527.16,722.55 527.50,722.00 ZM 615.69 717.80 C616.35,717.28 616.63,716.21 616.33,715.41 C616.02,714.62 616.28,713.36 616.91,712.61 C617.53,711.87 617.75,710.52 617.41,709.61 C617.06,708.71 617.28,707.36 617.91,706.61 C618.53,705.87 618.75,704.52 618.41,703.61 C618.06,702.71 618.25,701.40 618.83,700.70 C619.47,699.93 619.54,698.87 619.00,698.00 C618.46,697.13 618.53,696.06 619.18,695.28 C619.94,694.37 619.92,693.60 619.11,692.63 C618.48,691.87 618.25,690.52 618.59,689.61 C618.94,688.71 618.77,687.42 618.23,686.74 C617.68,686.06 617.32,683.34 617.44,680.70 C617.60,677.33 617.22,675.66 616.18,675.08 C615.32,674.60 614.95,673.56 615.31,672.64 C616.20,670.31 613.07,669.00 606.63,669.00 C600.50,669.00 596.00,670.33 596.00,672.15 C596.00,672.80 595.26,674.16 594.36,675.15 C593.10,676.55 592.99,677.28 593.88,678.35 C594.51,679.12 594.75,680.48 594.41,681.39 C594.06,682.29 594.17,683.58 594.65,684.26 C595.13,684.94 595.40,688.42 595.26,692.00 C595.11,695.58 594.98,698.95 594.96,699.50 C594.94,700.05 595.09,702.30 595.29,704.50 C595.49,706.70 595.25,709.04 594.74,709.71 C594.24,710.37 594.20,711.49 594.66,712.21 C595.12,712.92 595.50,714.38 595.50,715.46 C595.50,716.88 596.61,717.77 599.50,718.66 C603.75,719.96 613.64,719.44 615.69,717.80 ZM 661.00 451.00 L 661.00 466.00 L 671.00 466.00 L 671.00 455.12 L 678.50 454.50 L 679.00 448.50 C679.37,444.06 679.89,442.50 681.00,442.50 C681.89,442.50 682.63,441.39 682.82,439.75 C683.06,437.62 683.66,437.00 685.48,437.00 C688.42,437.00 688.58,436.51 688.17,428.61 C687.87,422.77 687.62,422.12 685.42,421.57 C683.83,421.17 683.00,420.25 683.00,418.89 C683.00,417.65 682.19,416.60 681.00,416.29 C679.29,415.84 679.00,414.93 679.00,409.88 L 679.00 404.00 L 671.00 404.00 L 671.00 393.00 L 661.00 393.00 L 661.00 407.87 L 664.25 408.19 C666.74,408.43 667.57,409.03 667.82,410.75 C668.00,411.99 668.76,413.00 669.52,413.00 C670.50,413.00 670.99,414.67 671.20,418.75 C671.50,424.43 671.54,424.50 674.75,424.81 L 678.00 425.13 L 678.00 438.00 L 671.23 438.00 L 670.54 444.50 L 669.84 451.00 ZM 701.00 471.24 C695.11,470.77 693.00,470.03 693.00,468.45 C693.00,467.61 692.40,465.93 691.66,464.71 C690.90,463.46 690.36,459.90 690.41,456.50 L 690.50 450.50 L 695.50 449.84 C707.75,448.22 717.00,449.56 717.00,452.96 C717.00,453.99 717.85,456.81 718.89,459.23 C720.52,463.05 720.60,464.05 719.47,466.72 C718.76,468.42 717.12,470.14 715.84,470.55 C713.28,471.37 706.49,471.69 701.00,471.24 ZM 695.00 454.93 L 695.00 467.00 L 717.10 467.00 L 716.80 461.25 L 716.50 455.50 L 705.75 455.22 ZM 679.26 678.01 C684.14,678.00 685.34,677.62 687.19,675.50 C688.38,674.12 690.38,673.00 691.62,673.00 C696.52,673.00 694.63,671.16 688.56,670.01 C681.19,668.62 675.54,669.82 674.73,672.94 C674.45,674.01 672.94,675.07 671.12,675.47 C669.40,675.85 668.00,676.50 668.00,676.91 C668.00,678.40 669.48,679.11 671.47,678.57 C672.59,678.27 676.09,678.02 679.26,678.01 ZM 668.50 698.48 C668.50,697.39 668.88,695.92 669.34,695.20 C669.80,694.49 669.90,693.19 669.57,692.33 C669.24,691.46 669.45,690.16 670.05,689.44 C671.46,687.75 667.77,685.62 664.96,686.51 C662.77,687.21 662.32,689.58 664.25,690.30 C665.12,690.63 664.89,691.26 663.50,692.39 C661.54,693.97 661.54,694.03 663.40,695.47 C664.91,696.64 665.05,697.23 664.11,698.37 C663.18,699.49 663.20,699.92 664.21,700.34 C666.58,701.31 668.50,700.48 668.50,698.48 ZM 440.32 438.34 C441.48,437.19 438.85,435.00 436.31,435.00 C433.20,435.00 429.77,436.81 430.53,438.05 C431.19,439.12 439.31,439.36 440.32,438.34 ZM 676.48 710.97 C675.86,709.96 670.92,709.09 669.31,709.71 C667.31,710.48 667.75,711.97 670.25,712.90 C672.58,713.76 677.31,712.30 676.48,710.97 ZM 676.44 717.10 C676.75,716.60 675.65,715.72 674.00,715.15 C671.34,714.22 671.00,714.32 671.00,716.05 C671.00,717.45 671.69,718.00 673.44,718.00 C674.78,718.00 676.13,717.59 676.44,717.10 ZM 670.00 682.50 C670.00,680.89 669.08,680.65 666.59,681.60 C664.55,682.39 665.54,684.00 668.06,684.00 C669.13,684.00 670.00,683.33 670.00,682.50 ZM 671.46 706.07 C671.77,705.56 671.09,704.85 669.94,704.48 C667.57,703.73 666.49,704.36 667.46,705.93 C668.27,707.25 670.68,707.33 671.46,706.07 ZM 626.00 654.11 C626.00,652.48 623.17,652.10 621.95,653.56 C620.96,654.75 621.21,655.00 623.38,655.00 C624.82,655.00 626.00,654.60 626.00,654.11 ZM 560.00 397.00 C560.00,395.75 558.94,395.75 557.00,397.00 C555.79,397.78 555.93,397.97 557.75,397.98 C558.99,397.99 560.00,397.55 560.00,397.00 Z" fill="rgb(14,75,16)"/>
<path d="M 307.00 569.10 L 318.50 568.50 L 318.80 563.25 L 319.10 558.00 L 330.00 558.00 L 330.00 546.00 L 341.00 546.00 L 341.00 535.00 L 353.00 535.00 L 353.00 523.00 L 364.00 523.00 L 364.00 512.00 L 369.50 512.00 C369.84,512.00 370.15,512.00 370.45,512.00 C372.55,512.01 373.71,512.02 374.38,511.44 C375.32,510.64 375.27,508.69 375.42,504.00 C375.49,501.67 375.89,501.48 381.25,501.20 L 387.00 500.90 L 387.00 461.00 L 398.00 461.00 L 398.00 397.00 L 387.00 397.00 L 387.00 380.00 L 376.00 380.00 L 375.87 376.25 C375.80,374.19 375.69,369.35 375.62,365.50 L 375.50 358.50 L 387.00 357.90 L 387.00 363.33 C387.00,368.60 387.09,368.77 390.12,369.38 C391.84,369.72 394.32,370.00 395.62,370.00 C397.94,370.00 398.00,370.21 398.01,378.75 C398.02,383.56 398.29,388.48 398.61,389.68 L 399.19 391.85 L 402.35 389.93 C406.44,387.43 407.86,387.50 408.97,390.25 C409.67,392.00 409.89,391.21 409.94,386.75 L 410.00 381.00 L 421.00 381.00 L 421.00 364.00 L 433.00 364.00 L 433.00 341.25 L 436.12 340.62 C437.84,340.28 442.79,340.00 447.12,340.00 L 455.00 340.00 L 455.00 363.00 L 444.00 363.00 L 444.00 386.00 L 438.25 386.00 L 432.50 386.00 L 432.50 414.50 L 421.00 415.10 L 421.00 461.10 L 432.50 460.50 L 432.80 455.25 L 433.10 450.00 L 444.00 450.00 L 444.00 443.00 L 455.50 443.00 L 454.85 427.00 L 467.00 427.00 L 467.00 415.00 L 478.00 415.00 L 478.00 404.00 L 490.00 404.00 L 490.00 393.00 L 501.00 393.00 L 501.00 381.00 L 511.90 381.00 L 512.20 375.27 C512.46,370.33 512.78,369.52 514.50,369.44 C515.60,369.38 518.19,369.27 520.25,369.17 L 524.00 369.00 L 524.00 358.00 L 535.50 358.00 L 534.92 318.00 L 546.95 318.00 L 546.50 276.50 L 569.00 275.93 L 569.00 306.00 L 564.56 306.00 C562.12,306.00 559.81,306.50 559.44,307.10 C559.06,307.71 558.53,314.46 558.25,322.10 L 557.74 336.00 L 570.18 336.00 L 569.50 324.50 L 581.00 323.90 L 581.00 313.00 L 592.00 313.00 L 592.00 302.10 L 603.50 301.50 L 603.80 296.25 C604.10,291.08 604.15,291.00 607.30,290.99 C614.52,290.96 615.00,290.46 615.00,282.94 C615.00,279.19 615.46,275.84 616.01,275.49 C616.57,275.15 621.74,275.18 627.51,275.57 L 638.00 276.27 L 638.00 296.00 L 626.00 296.00 L 626.00 306.00 L 615.00 306.00 L 615.00 318.00 L 603.00 318.00 L 603.00 330.00 L 592.00 330.00 L 592.00 341.00 L 581.00 341.00 L 581.00 358.00 L 569.00 358.00 L 569.00 369.00 L 558.00 369.00 L 558.00 381.00 L 547.00 381.00 L 547.00 391.00 L 535.00 391.00 L 535.00 400.90 L 529.75 401.20 L 524.50 401.50 L 524.20 408.25 L 523.91 415.00 L 558.00 415.00 L 558.00 404.00 L 626.00 404.00 L 626.00 393.00 L 648.00 393.00 L 648.00 415.00 L 626.00 415.00 L 626.00 426.00 L 569.00 426.00 L 569.00 437.00 L 547.75 437.01 C536.06,437.02 525.49,437.30 524.25,437.63 C522.71,438.04 522.00,438.99 522.00,440.62 L 522.00 443.00 L 490.10 443.00 L 489.50 454.50 L 478.00 455.10 L 478.00 466.00 L 467.00 466.00 L 467.00 477.00 L 456.10 477.00 L 455.42 483.00 L 454.74 489.00 L 444.00 489.00 L 444.00 500.00 L 433.00 500.00 L 433.00 510.90 L 421.50 511.50 L 420.90 523.00 L 415.45 523.00 C409.50,523.00 409.44,523.10 409.96,531.20 C410.13,533.81 409.95,533.91 404.32,534.20 L 398.50 534.50 L 398.19 539.48 C397.82,545.24 397.05,545.96 391.25,545.98 L 387.00 546.00 L 387.00 557.00 L 381.50 557.00 C381.02,557.00 380.58,557.00 380.18,556.99 C378.35,556.97 377.30,556.96 376.68,557.47 C375.73,558.26 375.82,560.30 375.62,565.50 C375.50,568.44 375.38,568.51 369.75,568.80 L 364.00 569.10 L 364.00 580.00 L 353.00 580.00 L 353.00 590.90 L 347.25 591.20 C343.01,591.42 341.46,591.90 341.37,593.00 C341.29,593.83 341.18,596.41 341.12,598.75 L 341.00 603.00 L 307.00 603.00 ZM 410.00 639.00 L 437.00 639.00 L 437.10 641.75 C437.16,643.26 437.27,656.95 437.35,672.17 C437.43,687.38 437.80,700.13 438.17,700.50 C438.53,700.87 441.34,700.85 444.42,700.47 L 450.00 699.77 L 450.00 666.00 L 461.00 666.00 C471.71,666.00 472.00,666.06 472.11,668.25 C472.17,669.49 472.39,677.25 472.60,685.50 L 472.97 700.50 L 484.50 700.50 L 484.61 672.50 C484.67,657.10 484.78,643.26 484.86,641.75 L 485.00 639.00 L 512.00 639.00 L 512.00 748.00 L 495.01 748.00 C479.44,748.00 478.04,747.85 478.17,746.25 C478.25,745.29 478.25,740.79 478.16,736.25 L 478.00 728.00 L 474.08 728.00 C467.72,728.00 467.00,727.38 467.00,721.89 L 467.00 717.00 L 455.00 717.00 L 455.00 721.88 C455.00,727.24 454.09,727.96 447.25,727.99 L 444.00 728.00 L 444.00 748.00 L 410.00 748.00 ZM 557.00 594.00 L 577.72 594.00 L 578.35 588.75 C579.15,582.15 579.15,575.17 578.37,572.25 L 577.77 570.00 L 531.00 570.00 L 531.00 558.00 L 543.00 558.00 L 543.00 546.00 L 556.00 546.00 L 556.00 534.26 L 544.00 532.90 L 544.00 522.00 L 556.00 522.00 L 556.00 509.00 L 569.00 509.00 L 569.00 497.00 L 557.00 497.00 L 557.00 485.00 L 569.91 485.00 L 569.50 473.50 L 575.75 473.20 L 582.00 472.90 L 582.00 461.00 L 594.00 461.00 L 594.00 466.38 C594.00,472.44 594.69,472.96 602.75,472.99 L 607.00 473.00 L 607.00 485.00 L 619.00 485.00 L 619.00 497.00 L 613.61 497.00 C607.62,497.00 607.43,497.21 607.47,504.00 L 607.50 508.50 L 613.75 508.80 L 620.00 509.10 L 620.00 520.88 L 624.75 521.50 C627.36,521.85 630.17,522.22 631.00,522.32 C632.07,522.46 632.59,524.00 632.80,527.62 C633.09,532.64 633.04,532.74 629.92,533.37 C628.18,533.71 625.46,534.00 623.88,534.00 C621.06,534.00 621.00,534.12 621.00,539.38 C621.00,545.37 621.73,545.96 629.25,545.99 L 633.00 546.00 L 633.00 558.00 L 646.10 558.00 L 645.80 563.75 L 645.50 569.50 L 597.62 570.50 L 597.50 593.50 L 608.25 593.78 L 619.00 594.07 L 619.00 604.00 L 557.00 604.00 ZM 648.50 738.50 L 638.00 737.90 L 638.00 733.05 C638.00,727.63 637.27,727.00 630.92,727.00 L 627.00 727.00 L 627.00 660.00 L 638.00 660.00 L 638.00 649.00 L 649.00 649.00 L 649.00 639.00 L 717.00 639.00 L 717.00 660.00 L 706.75 660.22 C701.11,660.34 692.67,660.45 688.00,660.48 C683.33,660.50 676.46,660.63 672.75,660.76 L 666.00 661.00 L 666.00 671.00 L 660.50 671.00 C655.48,671.00 654.99,671.20 654.93,673.25 C654.89,674.49 654.70,684.61 654.50,695.75 L 654.13 716.00 L 657.81 716.01 C665.12,716.04 666.00,716.70 666.00,722.12 L 666.00 727.00 L 689.00 727.00 L 689.00 704.25 L 685.88 703.62 C684.16,703.28 681.46,703.00 679.88,703.00 L 677.00 703.00 L 677.00 684.00 L 717.00 684.00 L 717.00 748.00 L 648.46 748.00 ZM 530.00 737.50 C530.00,728.19 530.20,726.99 531.75,726.94 C532.71,726.91 538.79,726.94 545.25,727.00 L 557.00 727.10 L 557.00 660.00 L 530.00 660.00 L 530.00 639.00 L 613.00 639.00 L 613.00 660.00 L 585.00 660.00 L 585.00 727.00 L 613.00 727.00 L 613.00 748.00 L 530.00 748.00 ZM 337.00 659.74 L 322.25 660.12 L 307.50 660.50 L 307.22 649.75 L 306.93 639.00 L 393.00 639.00 L 393.00 659.95 L 364.50 660.50 L 364.24 704.25 L 363.98 748.00 L 337.00 748.00 ZM 661.00 451.00 L 669.84 451.00 L 670.54 444.50 L 671.23 438.00 L 678.00 438.00 L 678.00 425.13 L 674.75 424.81 C671.54,424.50 671.50,424.43 671.20,418.75 C670.99,414.67 670.50,413.00 669.52,413.00 C668.76,413.00 668.00,411.99 667.82,410.75 C667.57,409.03 666.74,408.43 664.25,408.19 L 661.00 407.87 L 661.00 393.00 L 671.00 393.00 L 671.00 404.00 L 679.00 404.00 L 679.00 409.88 C679.00,414.93 679.29,415.84 681.00,416.29 C682.19,416.60 683.00,417.65 683.00,418.89 C683.00,420.25 683.83,421.17 685.42,421.57 C687.62,422.12 687.87,422.77 688.17,428.61 C688.58,436.51 688.42,437.00 685.48,437.00 C683.66,437.00 683.06,437.62 682.82,439.75 C682.63,441.39 681.89,442.50 681.00,442.50 C679.89,442.50 679.37,444.06 679.00,448.50 L 678.50 454.50 L 671.00 455.12 L 671.00 466.00 L 661.00 466.00 ZM 695.00 454.93 L 716.50 455.50 L 716.80 461.25 L 717.10 467.00 L 695.00 467.00 Z" fill="rgb(80,239,86)"/>
<path d="M 0.00 512.00 L 0.00 0.00 L 512.00 0.00 L 1024.00 0.00 L 1024.00 512.00 L 1024.00 1024.00 L 512.00 1024.00 L 0.00 1024.00 L 0.00 512.00 ZM 849.75 513.75 L 850.00 177.00 L 512.50 177.00 L 175.00 177.00 L 175.00 514.00 L 175.00 851.00 L 512.25 850.75 L 849.50 850.50 L 849.75 513.75 Z" fill="rgb(254,254,254)"/>
</g>
</svg>